<?xml version="1.0" encoding="UTF-8" standalone="no"?>
<!-- Created with Inkscape (http://www.inkscape.org/) -->

<svg
   xmlns:dc="http://purl.org/dc/elements/1.1/"
   xmlns:cc="http://creativecommons.org/ns#"
   xmlns:rdf="http://www.w3.org/1999/02/22-rdf-syntax-ns#"
   xmlns:svg="http://www.w3.org/2000/svg"
   xmlns="http://www.w3.org/2000/svg"
   xmlns:sodipodi="http://sodipodi.sourceforge.net/DTD/sodipodi-0.dtd"
   xmlns:inkscape="http://www.inkscape.org/namespaces/inkscape"
   id="svg2"
   version="1.1"
   inkscape:version="0.48.4 r9939"
   width="2978.75"
   height="2106.25"
   xml:space="preserve"
   sodipodi:docname="button_backplate.svg"><metadata
     id="metadata8"><rdf:RDF><cc:Work
         rdf:about=""><dc:format>image/svg+xml</dc:format><dc:type
           rdf:resource="http://purl.org/dc/dcmitype/StillImage" /><dc:title></dc:title></cc:Work></rdf:RDF></metadata><defs
     id="defs6"><clipPath
       clipPathUnits="userSpaceOnUse"
       id="clipPath16"><path
         d="m 0,0 2383,0 0,1683 L 0,1683 0,0 z"
         id="path18"
         inkscape:connector-curvature="0" /></clipPath></defs><sodipodi:namedview
     pagecolor="#ffffff"
     bordercolor="#666666"
     borderopacity="1"
     objecttolerance="10"
     gridtolerance="10"
     guidetolerance="10"
     inkscape:pageopacity="0"
     inkscape:pageshadow="2"
     inkscape:window-width="1920"
     inkscape:window-height="1045"
     id="namedview4"
     showgrid="false"
     inkscape:object-nodes="true"
     inkscape:zoom="0.41543027"
     inkscape:cx="1346.4075"
     inkscape:cy="1303.4234"
     inkscape:window-x="1920"
     inkscape:window-y="0"
     inkscape:window-maximized="1"
     inkscape:current-layer="g10"
     inkscape:document-units="mm"
     units="mm"><inkscape:grid
       type="xygrid"
       id="grid4410"
       empspacing="5"
       visible="true"
       enabled="true"
       snapvisiblegridlinesonly="true"
       units="mm"
       spacingx="1mm"
       spacingy="1mm" /></sodipodi:namedview><g
     id="g10"
     inkscape:groupmode="layer"
     inkscape:label="Floating Gym Jams - button backplate"
     transform="matrix(1.25,0,0,-1.25,0,2106.2501)"><g
       id="g4482"><path
         sodipodi:nodetypes="ccccc"
         inkscape:connector-curvature="0"
         id="path26"
         style="fill:none;stroke:#0000ff;stroke-width:0.70866102;stroke-linecap:round;stroke-linejoin:round;stroke-miterlimit:10;stroke-opacity:1;stroke-dasharray:none"
         d="m 1938.3249,1343.9959 -68,0 0,-42.5 68,0 z" /><path
         sodipodi:nodetypes="ccccccccccccccccccccccccccccccccccccccccc"
         inkscape:connector-curvature="0"
         id="path76"
         style="fill:none;stroke:#ff0000;stroke-width:0.70866102;stroke-linecap:round;stroke-linejoin:round;stroke-miterlimit:10;stroke-opacity:1;stroke-dasharray:none"
         d="m 1826.1306,1423.2803 c 5.5325,5.5325 5.5325,14.5023 0,20.0347 l -54.8577,54.8578 c -4.0502,4.0501 -5.2629,10.1407 -3.0732,15.4334 l 110.3852,45.723 119.48,0 110.3852,-45.723 c 2.1898,-5.2927 0.977,-11.3833 -3.0732,-15.4334 l -54.8577,-54.8578 c -5.5324,-5.5324 -5.5324,-14.5022 0,-20.0347 l 52.0902,-52.0902 c 5.5324,-5.5324 14.5022,-5.5324 20.0347,0 l 54.8577,54.8578 c 4.0502,4.0501 10.1407,5.2629 15.4334,3.0731 l 45.723,-110.3851 0,-119.4801 -45.723,-110.3851 c -5.2927,-2.1898 -11.3832,-0.977 -15.4334,3.0731 l -54.8577,54.8578 c -5.5325,5.5324 -14.5023,5.5324 -20.0347,0 l -52.0902,-52.0902 c -5.5324,-5.5324 -5.5324,-14.5023 0,-20.0347 l 54.8577,-54.8578 c 4.0502,-4.0501 5.263,-10.1407 3.0732,-15.4333 l -110.3852,-45.72307 -119.48,0 -110.3852,45.72307 c -2.1897,5.2926 -0.977,11.3832 3.0732,15.4333 l 54.8577,54.8578 c 5.5325,5.5324 5.5325,14.5023 0,20.0347 l -52.0902,52.0902 c -5.5324,5.5324 -14.5022,5.5324 -20.0347,0 l -54.8577,-54.8578 c -4.0502,-4.0501 -10.1407,-5.2629 -15.4334,-3.0731 l -45.723,110.3851 0,119.4801 45.723,110.3851 c 5.2927,2.1898 11.3832,0.977 15.4334,-3.0731 l 54.8577,-54.8578 c 5.5325,-5.5324 14.5023,-5.5324 20.0347,0 z" /><path
         sodipodi:nodetypes="ccccccccc"
         inkscape:connector-curvature="0"
         id="path114"
         style="fill:none;stroke:#0000ff;stroke-width:0.70866102;stroke-linecap:round;stroke-linejoin:round;stroke-miterlimit:10;stroke-opacity:1;stroke-dasharray:none"
         d="m 2188.8013,1117.6549 c 1.3535,-0.7854 1.8141,-2.5192 1.0288,-3.8727 -0.7854,-1.3534 -2.5192,-1.814 -3.8727,-1.0287 l -9.9637,5.7812 c -0.1176,0.049 -0.2319,0.1048 -0.342,0.1688 -1.3535,0.7853 -1.814,2.5192 -1.0287,3.8726 0.7853,1.3535 2.5192,1.8141 3.8726,1.0288 l 9.9637,-5.7813 c 0.1177,-0.048 0.2319,-0.1047 0.342,-0.1687 z" /><path
         sodipodi:nodetypes="ccccccccc"
         inkscape:connector-curvature="0"
         id="path130"
         style="fill:none;stroke:#0000ff;stroke-width:0.70866102;stroke-linecap:round;stroke-linejoin:round;stroke-miterlimit:10;stroke-opacity:1;stroke-dasharray:none"
         d="m 1657.8024,1183.8364 c 0.4017,-1.5124 1.9534,-2.4127 3.4658,-2.0109 0.123,0.033 0.2436,0.074 0.3611,0.1225 l 11.1334,2.9574 c 1.5123,0.4017 2.4127,1.9534 2.0109,3.4658 -0.4017,1.5123 -1.9534,2.4127 -3.4658,2.0109 -0.123,-0.033 -0.2436,-0.074 -0.3611,-0.1225 l -11.1334,-2.9574 c -1.5123,-0.4018 -2.4127,-1.9534 -2.0109,-3.4658 z" /><path
         sodipodi:nodetypes="ccccccccc"
         inkscape:connector-curvature="0"
         id="path134"
         style="fill:none;stroke:#0000ff;stroke-width:0.70866102;stroke-linecap:round;stroke-linejoin:round;stroke-miterlimit:10;stroke-opacity:1;stroke-dasharray:none"
         d="m 1938.331,986.14585 c -1.5648,0.003 -2.836,-1.26241 -2.8394,-2.82721 -3e-4,-0.12727 0.01,-0.25442 0.025,-0.38058 l -0.025,-11.51942 c 0,-1.56481 1.2624,-2.83606 2.8272,-2.83944 1.5648,-0.003 2.8361,1.26241 2.8394,2.82722 3e-4,0.12727 -0.01,0.25442 -0.025,0.38057 l 0.025,11.51943 c -10e-5,1.5648 -1.2625,2.83606 -2.8273,2.83943 z" /><path
         sodipodi:nodetypes="cccccsccc"
         inkscape:connector-curvature="0"
         id="path136"
         style="fill:none;stroke:#0000ff;stroke-width:0.70866102;stroke-linecap:round;stroke-linejoin:round;stroke-miterlimit:10;stroke-opacity:1;stroke-dasharray:none"
         d="m 1802.9339,1018.8251 c 0.7853,1.3535 0.3248,3.0873 -1.0287,3.8727 -1.3535,0.7853 -3.0873,0.3247 -3.8726,-1.0288 -0.064,-0.11 -0.1203,-0.2243 -0.1688,-0.342 l -5.7812,-9.9637 c -0.7854,-1.3534 -0.3248,-3.0873 1.0287,-3.8726 1.3535,-0.7853 3.0873,-0.3247 3.8726,1.0287 0.064,0.1101 0.1203,0.2244 0.1688,0.342 z" /><path
         sodipodi:nodetypes="ccccccccc"
         inkscape:connector-curvature="0"
         id="path150"
         style="fill:none;stroke:#0000ff;stroke-width:0.70866102;stroke-linecap:round;stroke-linejoin:round;stroke-miterlimit:10;stroke-opacity:1;stroke-dasharray:none"
         d="m 1864.2344,1524.5581 c 0.4018,-1.5124 1.9535,-2.4127 3.4658,-2.011 1.5124,0.4018 2.4127,1.9535 2.011,3.4658 -0.033,0.123 -0.074,0.2437 -0.1225,0.3612 l -2.9575,11.1333 c -0.4017,1.5124 -1.9534,2.4127 -3.4658,2.011 -1.5123,-0.4017 -2.4126,-1.9534 -2.0109,-3.4658 0.033,-0.123 0.074,-0.2437 0.1225,-0.3612 z" /><path
         sodipodi:nodetypes="ccccccccc"
         inkscape:connector-curvature="0"
         id="path162"
         style="fill:none;stroke:#0000ff;stroke-width:0.70866102;stroke-linecap:round;stroke-linejoin:round;stroke-miterlimit:10;stroke-opacity:1;stroke-dasharray:none"
         d="m 2073.7159,1499.1666 c -0.7853,-1.3535 -0.3248,-3.0873 1.0287,-3.8726 1.3535,-0.7854 3.0873,-0.3248 3.8726,1.0287 0.064,0.1101 0.1203,0.2243 0.1688,0.342 l 5.7812,9.9637 c 0.7854,1.3535 0.3248,3.0873 -1.0287,3.8726 -1.3534,0.7853 -3.0873,0.3248 -3.8726,-1.0287 -0.064,-0.1101 -0.1203,-0.2244 -0.1688,-0.342 z" /><path
         sodipodi:nodetypes="ccccccccc"
         inkscape:connector-curvature="0"
         id="path168"
         style="fill:none;stroke:#0000ff;stroke-width:0.70866102;stroke-linecap:round;stroke-linejoin:round;stroke-miterlimit:10;stroke-opacity:1;stroke-dasharray:none"
         d="m 2185.968,1405.2443 c 1.3569,0.7795 3.0887,0.3114 3.8682,-1.0454 0.7794,-1.3568 0.3114,-3.0887 -1.0455,-3.8682 l -9.9885,-5.7382 c -0.1008,-0.078 -0.2068,-0.1488 -0.3172,-0.2118 -1.3568,-0.7794 -3.0886,-0.3114 -3.8681,1.0455 -0.7795,1.3568 -0.3114,3.0886 1.0454,3.8681 l 9.9885,5.7382 c 0.1009,0.078 0.2068,0.1488 0.3172,0.2118 z" /><path
         sodipodi:nodetypes="ccccccccc"
         inkscape:connector-curvature="0"
         id="path180"
         style="fill:none;stroke:#0000ff;stroke-width:0.70866102;stroke-linecap:round;stroke-linejoin:round;stroke-miterlimit:10;stroke-opacity:1;stroke-dasharray:none"
         d="m 2216.8365,1330.6895 c 1.5123,0.4018 2.4127,1.9535 2.0109,3.4658 -0.4017,1.5124 -1.9534,2.4127 -3.4657,2.011 -0.123,-0.033 -0.2437,-0.074 -0.3612,-0.1225 l -11.1334,-2.9575 c -1.5123,-0.4017 -2.4126,-1.9534 -2.0109,-3.4658 0.4017,-1.5123 1.9534,-2.4126 3.4658,-2.0109 0.123,0.033 0.2436,0.074 0.3611,0.1225 z" /><path
         sodipodi:nodetypes="ccccccccc"
         inkscape:connector-curvature="0"
         id="path184"
         style="fill:none;stroke:#0000ff;stroke-width:0.70866102;stroke-linecap:round;stroke-linejoin:round;stroke-miterlimit:10;stroke-opacity:1;stroke-dasharray:none"
         d="m 1671.296,1327.6128 c 1.5106,-0.4083 3.0662,0.4853 3.4745,1.9959 0.4082,1.5106 -0.4854,3.0662 -1.996,3.4745 -0.1229,0.033 -0.2479,0.058 -0.3741,0.074 l -11.1204,3.0056 c -1.5107,0.4083 -3.0662,-0.4854 -3.4745,-1.996 -0.4082,-1.5106 0.4854,-3.0661 1.996,-3.4744 0.1229,-0.033 0.2478,-0.058 0.3741,-0.075 z" /><path
         sodipodi:nodetypes="csccccccc"
         inkscape:connector-curvature="0"
         id="path186"
         style="fill:none;stroke:#0000ff;stroke-width:0.70866102;stroke-linecap:round;stroke-linejoin:round;stroke-miterlimit:10;stroke-opacity:1;stroke-dasharray:none"
         d="m 1869.708,991.96699 c 0.4083,1.51061 -0.4854,3.06616 -1.996,3.47442 -1.5106,0.40826 -3.0661,-0.48537 -3.4744,-1.99598 -0.033,-0.12286 -0.058,-0.24783 -0.074,-0.37404 l -3.0056,-11.12048 c -0.4083,-1.51061 0.4853,-3.06616 1.9959,-3.47442 1.5107,-0.40826 3.0662,0.48537 3.4745,1.99598 0.033,0.12287 0.058,0.24783 0.074,0.37404 z" /><path
         sodipodi:nodetypes="ccccccccc"
         inkscape:connector-curvature="0"
         id="path194"
         style="fill:none;stroke:#0000ff;stroke-width:0.70866102;stroke-linecap:round;stroke-linejoin:round;stroke-miterlimit:10;stroke-opacity:1;stroke-dasharray:none"
         d="m 2006.9418,1526.0247 c -0.4083,-1.5106 0.4854,-3.0661 1.996,-3.4744 1.5106,-0.4082 3.0661,0.4854 3.4744,1.996 0.033,0.1229 0.058,0.2478 0.074,0.374 l 3.0057,11.1205 c 0.4083,1.5106 -0.4853,3.0662 -1.9959,3.4744 -1.5106,0.4083 -3.0662,-0.4853 -3.4745,-1.9959 -0.033,-0.1229 -0.058,-0.2479 -0.075,-0.3741 z" /><path
         sodipodi:nodetypes="ccccccccc"
         inkscape:connector-curvature="0"
         id="path206"
         style="fill:none;stroke:#0000ff;stroke-width:0.70866102;stroke-linecap:round;stroke-linejoin:round;stroke-miterlimit:10;stroke-opacity:1;stroke-dasharray:none"
         d="m 2215.3699,1181.8286 c 1.5106,-0.4082 3.0661,0.4854 3.4744,1.996 0.4082,1.5106 -0.4854,3.0662 -1.996,3.4744 -0.1229,0.033 -0.2478,0.058 -0.374,0.074 l -11.1205,3.0057 c -1.5106,0.4082 -3.0662,-0.4854 -3.4744,-1.996 -0.4083,-1.5106 0.4853,-3.0662 1.9959,-3.4744 0.1229,-0.033 0.2479,-0.058 0.3741,-0.074 z" /><path
         sodipodi:nodetypes="ccccccccc"
         inkscape:connector-curvature="0"
         id="path218"
         style="fill:none;stroke:#0000ff;stroke-width:0.70866102;stroke-linecap:round;stroke-linejoin:round;stroke-miterlimit:10;stroke-opacity:1;stroke-dasharray:none"
         d="m 1662.6355,1256.1625 c 1.5648,0 2.836,1.2624 2.8394,2.8273 0,1.5648 -1.2624,2.836 -2.8272,2.8394 -0.1273,3e-4 -0.2544,-0.01 -0.3806,-0.025 l -11.5194,0.025 c -1.5648,0 -2.8361,-1.2624 -2.8395,-2.8272 0,-1.5648 1.2625,-2.8361 2.8273,-2.8395 0.1272,-2e-4 0.2544,0.01 0.3805,0.025 z" /><path
         sodipodi:nodetypes="ccccccccc"
         inkscape:connector-curvature="0"
         id="path222"
         style="fill:none;stroke:#0000ff;stroke-width:0.70866102;stroke-linecap:round;stroke-linejoin:round;stroke-miterlimit:10;stroke-opacity:1;stroke-dasharray:none"
         d="m 2211.1749,1259.002 c 0,-1.5648 1.2624,-2.8361 2.8272,-2.8395 0.1273,-2e-4 0.2544,0.01 0.3806,0.025 l 11.5194,-0.025 c 1.5648,0 2.8361,1.2624 2.8395,2.8273 0,1.5648 -1.2624,2.836 -2.8273,2.8394 -0.1272,3e-4 -0.2544,-0.01 -0.3805,-0.025 l -11.5195,0.025 c -1.5648,-10e-5 -2.836,-1.2625 -2.8394,-2.8273 z" /><path
         sodipodi:nodetypes="ccccccccc"
         inkscape:connector-curvature="0"
         id="path230"
         style="fill:none;stroke:#0000ff;stroke-width:0.70866102;stroke-linecap:round;stroke-linejoin:round;stroke-miterlimit:10;stroke-opacity:1;stroke-dasharray:none"
         d="m 1935.4915,1534.6853 c 10e-5,-1.5648 1.2625,-2.8361 2.8273,-2.8394 1.5648,0 2.8361,1.2624 2.8394,2.8272 3e-4,0.1273 -0.01,0.2544 -0.025,0.3806 l 0.025,11.5194 c 0,1.5648 -1.2624,2.836 -2.8272,2.8394 -1.5648,0 -2.836,-1.2624 -2.8394,-2.8272 -3e-4,-0.1273 0.01,-0.2544 0.025,-0.3806 z" /><path
         sodipodi:nodetypes="csccccccc"
         inkscape:connector-curvature="0"
         id="path236"
         style="fill:none;stroke:#0000ff;stroke-width:0.70866102;stroke-linecap:round;stroke-linejoin:round;stroke-miterlimit:10;stroke-opacity:1;stroke-dasharray:none"
         d="m 2078.6234,1021.6585 c -0.7795,1.3568 -2.5114,1.8249 -3.8682,1.0454 -1.3568,-0.7795 -1.8249,-2.5113 -1.0454,-3.8682 0.063,-0.1103 0.1341,-0.2163 0.2118,-0.3171 l 5.7382,-9.9886 c 0.7795,-1.3568 2.5113,-1.8249 3.8681,-1.0454 1.3569,0.7795 1.8249,2.5113 1.0455,3.8682 -0.063,0.1103 -0.1342,0.2163 -0.2118,0.3171 z" /><path
         sodipodi:nodetypes="ccccccccc"
         inkscape:connector-curvature="0"
         id="path240"
         style="fill:none;stroke:#0000ff;stroke-width:0.70866102;stroke-linecap:round;stroke-linejoin:round;stroke-miterlimit:10;stroke-opacity:1;stroke-dasharray:none"
         d="m 1700.9875,1118.6974 c 1.3569,0.7795 1.8249,2.5113 1.0454,3.8682 -0.7795,1.3568 -2.5113,1.8249 -3.8681,1.0454 -0.1104,-0.063 -0.2164,-0.1342 -0.3172,-0.2118 l -9.9885,-5.7382 c -1.3569,-0.7795 -1.8249,-2.5113 -1.0455,-3.8682 0.7795,-1.3568 2.5114,-1.8249 3.8682,-1.0454 0.1104,0.063 0.2163,0.1342 0.3172,0.2118 z" /><path
         sodipodi:nodetypes="ccccccccc"
         inkscape:connector-curvature="0"
         id="path252"
         style="fill:none;stroke:#0000ff;stroke-width:0.70866102;stroke-linecap:round;stroke-linejoin:round;stroke-miterlimit:10;stroke-opacity:1;stroke-dasharray:none"
         d="m 1792.0765,1506.639 c -0.7795,1.3568 -0.3115,3.0886 1.0454,3.8681 1.3568,0.7795 3.0886,0.3115 3.8681,-1.0454 l 5.7382,-9.9885 c 0.078,-0.1009 0.1488,-0.2068 0.2118,-0.3172 0.7795,-1.3568 0.3115,-3.0887 -1.0454,-3.8682 -1.3568,-0.7794 -3.0887,-0.3114 -3.8681,1.0455 l -5.7382,9.9885 c -0.078,0.1008 -0.1488,0.2068 -0.2118,0.3172 z" /><path
         sodipodi:nodetypes="ccccccccc"
         inkscape:connector-curvature="0"
         id="path260"
         style="fill:none;stroke:#0000ff;stroke-width:0.70866102;stroke-linecap:round;stroke-linejoin:round;stroke-miterlimit:10;stroke-opacity:1;stroke-dasharray:none"
         d="m 1702.0268,1395.4156 c 0.7853,1.3534 0.3248,3.0873 -1.0287,3.8726 -0.1101,0.064 -0.2244,0.1203 -0.342,0.1688 l -9.9637,5.7812 c -1.3535,0.7853 -3.0873,0.3248 -3.8726,-1.0287 -0.7854,-1.3535 -0.3248,-3.0873 1.0287,-3.8726 0.1101,-0.064 0.2243,-0.1203 0.342,-0.1688 l 9.9637,-5.7812 c 1.3535,-0.7854 3.0873,-0.3248 3.8726,1.0287 z" /><path
         sodipodi:nodetypes="ccccccccc"
         inkscape:connector-curvature="0"
         id="path264"
         style="fill:none;stroke:#0000ff;stroke-width:0.70866102;stroke-linecap:round;stroke-linejoin:round;stroke-miterlimit:10;stroke-opacity:1;stroke-dasharray:none"
         d="m 2008.9496,995.44457 c -1.5124,-0.40174 -2.4127,-1.95342 -2.011,-3.46578 0.033,-0.123 0.074,-0.24367 0.1225,-0.36117 l 2.9575,-11.13334 c 0.4017,-1.51236 1.9534,-2.41269 3.4658,-2.01095 1.5123,0.40174 2.4127,1.95342 2.0109,3.46578 -0.033,0.12301 -0.074,0.24367 -0.1225,0.36117 l -2.9574,11.13335 c -0.4018,1.51235 -1.9535,2.41269 -3.4658,2.01094 z" /></g><g
       id="g4412"
       transform="translate(-718.18559,197.38573)"><path
         sodipodi:nodetypes="ccccccccccccccc"
         inkscape:connector-curvature="0"
         id="path288"
         style="fill:none;stroke:#ff0000;stroke-width:0.70866102;stroke-linecap:round;stroke-linejoin:round;stroke-miterlimit:10;stroke-opacity:1;stroke-dasharray:none"
         d="m 1343.3584,1371.9323 -110.3851,45.723 -119.48,0 -110.3852,-45.723 -42.24257,-42.2426 7.01214,-7.0122 c 1.10649,1.1065 2.90046,1.1065 4.00694,0 1.10649,-1.1064 1.10649,-2.9004 0,-4.0069 l 1.00174,-1.0017 c 110.64855,110.6485 290.04525,110.6485 400.69385,0 l 1.0017,1.0017 c -1.1065,1.1065 -1.1065,2.9005 0,4.0069 1.1065,1.1065 2.9005,1.1065 4.007,0 l 7.0121,7.0122 z" /><path
         sodipodi:nodetypes="ssscs"
         inkscape:connector-curvature="0"
         id="path292"
         style="fill:none;stroke:#0000ff;stroke-width:0.70866102;stroke-linecap:round;stroke-linejoin:round;stroke-miterlimit:10;stroke-opacity:1;stroke-dasharray:none"
         d="m 1317.0249,1363.5431 c -1.5648,0 -2.8333,1.2685 -2.8333,2.8333 0,1.5648 1.2685,2.8334 2.8333,2.8334 1.5648,0 2.8334,-1.2686 2.8334,-2.8334 0,-1.5648 -1.2686,-2.8333 -2.8334,-2.8333 z" /><path
         sodipodi:nodetypes="ssscs"
         inkscape:connector-curvature="0"
         id="path294"
         style="fill:none;stroke:#0000ff;stroke-width:0.70866102;stroke-linecap:round;stroke-linejoin:round;stroke-miterlimit:10;stroke-opacity:1;stroke-dasharray:none"
         d="m 1247.6653,1392.2728 c -1.5648,0 -2.8333,1.2685 -2.8333,2.8333 0,1.5648 1.2685,2.8334 2.8333,2.8334 1.5648,0 2.8333,-1.2686 2.8333,-2.8334 0,-1.5648 -1.2685,-2.8333 -2.8333,-2.8333 z" /><path
         sodipodi:nodetypes="ssscs"
         inkscape:connector-curvature="0"
         id="path296"
         style="fill:none;stroke:#0000ff;stroke-width:0.70866102;stroke-linecap:round;stroke-linejoin:round;stroke-miterlimit:10;stroke-opacity:1;stroke-dasharray:none"
         d="m 1173.2333,1402.072 c -1.5648,0 -2.8334,1.2685 -2.8334,2.8333 0,1.5648 1.2686,2.8333 2.8334,2.8333 1.5648,0 2.8333,-1.2685 2.8333,-2.8333 0,-1.5648 -1.2685,-2.8333 -2.8333,-2.8333 z" /><path
         sodipodi:nodetypes="ssscs"
         inkscape:connector-curvature="0"
         id="path298"
         style="fill:none;stroke:#0000ff;stroke-width:0.70866102;stroke-linecap:round;stroke-linejoin:round;stroke-miterlimit:10;stroke-opacity:1;stroke-dasharray:none"
         d="m 1098.8012,1392.2728 c -1.5648,0 -2.8333,1.2685 -2.8333,2.8333 0,1.5648 1.2685,2.8334 2.8333,2.8334 1.5648,0 2.8334,-1.2686 2.8334,-2.8334 0,-1.5648 -1.2686,-2.8333 -2.8334,-2.8333 z" /><path
         sodipodi:nodetypes="ssscs"
         inkscape:connector-curvature="0"
         id="path300"
         style="fill:none;stroke:#0000ff;stroke-width:0.70866102;stroke-linecap:round;stroke-linejoin:round;stroke-miterlimit:10;stroke-opacity:1;stroke-dasharray:none"
         d="m 1029.4416,1363.5431 c -1.5648,0 -2.8333,1.2685 -2.8333,2.8333 0,1.5648 1.2685,2.8334 2.8333,2.8334 1.5648,0 2.8333,-1.2686 2.8333,-2.8334 0,-1.5648 -1.2685,-2.8333 -2.8333,-2.8333 z" /></g><g
       id="g4420"><path
         sodipodi:nodetypes="ccccccccc"
         inkscape:connector-curvature="0"
         id="path312"
         style="fill:none;stroke:#0000ff;stroke-width:0.70866102;stroke-linecap:round;stroke-linejoin:round;stroke-miterlimit:10;stroke-opacity:1;stroke-dasharray:none"
         d="m 306.79095,1482.9155 c 1.10649,1.1065 2.90045,1.1065 4.00694,0 l 2.00347,-2.0035 c 1.10648,-1.1064 1.10648,-2.9004 0,-4.0069 l -60.10408,-60.1041 c -1.10648,-1.1065 -2.90045,-1.1065 -4.00694,0 l -2.00346,2.0035 c -1.10649,1.1065 -1.10649,2.9004 0,4.0069 z" /><path
         sodipodi:nodetypes="ccccccccc"
         inkscape:connector-curvature="0"
         id="path328"
         style="fill:none;stroke:#0000ff;stroke-width:0.70866102;stroke-linecap:round;stroke-linejoin:round;stroke-miterlimit:10;stroke-opacity:1;stroke-dasharray:none"
         d="m 569.24542,1452.8635 c 1.10648,1.1065 2.90045,1.1065 4.00694,0 l 60.10407,-60.1041 c 1.10649,-1.1065 1.10649,-2.9005 0,-4.0069 l -2.00347,-2.0035 c -1.10648,-1.1065 -2.90045,-1.1065 -4.00693,0 l -60.10408,60.1041 c -1.10649,1.1065 -1.10649,2.9004 0,4.0069 z" /><path
         sodipodi:nodetypes="ccccccccc"
         inkscape:connector-curvature="0"
         id="path342"
         style="fill:none;stroke:#0000ff;stroke-width:0.70866102;stroke-linecap:round;stroke-linejoin:round;stroke-miterlimit:10;stroke-opacity:1;stroke-dasharray:none"
         d="m 603.3044,1482.9155 60.10407,-60.1041 c 1.10649,-1.1065 1.10649,-2.9004 0,-4.0069 l -2.00347,-2.0035 c -1.10648,-1.1065 -2.90045,-1.1065 -4.00694,0 l -60.10407,60.1041 c -1.10649,1.1065 -1.10649,2.9005 0,4.0069 l 2.00347,2.0035 c 1.10648,1.1065 2.90045,1.1065 4.00694,0 z" /><path
         sodipodi:nodetypes="ccccccccc"
         inkscape:connector-curvature="0"
         id="path348"
         style="fill:none;stroke:#0000ff;stroke-width:0.70866102;stroke-linecap:round;stroke-linejoin:round;stroke-miterlimit:10;stroke-opacity:1;stroke-dasharray:none"
         d="m 657.39806,1132.3084 c 1.10649,1.1065 2.90046,1.1065 4.00694,0 l 2.00347,-2.0035 c 1.10649,-1.1065 1.10649,-2.9004 0,-4.0069 l -60.10407,-60.1041 c -1.10649,-1.1065 -2.90046,-1.1065 -4.00694,0 l -2.00347,2.0035 c -1.10649,1.1065 -1.10649,2.9004 0,4.0069 z" /><path
         sodipodi:nodetypes="ccccccccc"
         inkscape:connector-curvature="0"
         id="path374"
         style="fill:none;stroke:#0000ff;stroke-width:0.70866102;stroke-linecap:round;stroke-linejoin:round;stroke-miterlimit:10;stroke-opacity:1;stroke-dasharray:none"
         d="m 336.84299,1096.246 -60.10408,60.104 c -1.10648,1.1065 -1.10648,2.9005 0,4.007 l 2.00347,2.0034 c 1.10649,1.1065 2.90046,1.1065 4.00694,0 l 60.10408,-60.104 c 1.10648,-1.1065 1.10648,-2.9005 0,-4.007 l -2.00347,-2.0034 c -1.10649,-1.1065 -2.90045,-1.1065 -4.00694,0 z" /><path
         sodipodi:nodetypes="ccccccccc"
         inkscape:connector-curvature="0"
         id="path380"
         style="fill:none;stroke:#0000ff;stroke-width:0.70866102;stroke-linecap:round;stroke-linejoin:round;stroke-miterlimit:10;stroke-opacity:1;stroke-dasharray:none"
         d="m 312.80136,1072.2043 c 1.10648,-1.1065 1.10648,-2.9004 0,-4.0069 l -2.00347,-2.0035 c -1.10649,-1.1065 -2.90045,-1.1065 -4.00694,0 l -60.10407,60.1041 c -1.10649,1.1065 -1.10649,2.9004 0,4.0069 l 2.00346,2.0035 c 1.10649,1.1065 2.90046,1.1065 4.00694,0 z" /><path
         sodipodi:nodetypes="ccccccccc"
         inkscape:connector-curvature="0"
         id="path396"
         style="fill:none;stroke:#0000ff;stroke-width:0.70866102;stroke-linecap:round;stroke-linejoin:round;stroke-miterlimit:10;stroke-opacity:1;stroke-dasharray:none"
         d="m 276.73891,1388.7525 2.00347,-2.0035 c 1.10649,-1.1065 2.90046,-1.1065 4.00694,0 l 60.10408,60.1041 c 1.10648,1.1065 1.10648,2.9004 0,4.0069 l -2.00347,2.0035 c -1.10649,1.1065 -2.90045,1.1065 -4.00694,0 l -60.10408,-60.1041 c -1.10648,-1.1065 -1.10648,-2.9005 0,-4.0069 z" /><path
         sodipodi:nodetypes="ccccccccc"
         inkscape:connector-curvature="0"
         id="path418"
         style="fill:none;stroke:#0000ff;stroke-width:0.70866102;stroke-linecap:round;stroke-linejoin:round;stroke-miterlimit:10;stroke-opacity:1;stroke-dasharray:none"
         d="m 569.24542,1096.246 -2.00347,2.0034 c -1.10649,1.1065 -1.10649,2.9005 0,4.007 l 60.10408,60.104 c 1.10648,1.1065 2.90045,1.1065 4.00693,0 l 2.00347,-2.0034 c 1.10649,-1.1065 1.10649,-2.9005 0,-4.007 l -60.10407,-60.104 c -1.10649,-1.1065 -2.90046,-1.1065 -4.00694,0 z" /><path
         sodipodi:nodetypes="ccccccccccccccccc"
         inkscape:connector-curvature="0"
         id="path432"
         style="fill:none;stroke:#ff0000;stroke-width:0.70866102;stroke-linecap:round;stroke-linejoin:round;stroke-miterlimit:10;stroke-opacity:1;stroke-dasharray:none"
         d="m 395.30766,1574.888 119.48003,0 110.38515,-45.723 84.48514,-84.4851 45.72303,-110.3852 0,-119.48 -45.72303,-110.3852 -84.48514,-84.4851 -110.38515,-45.72302 -119.48003,0 -110.38515,45.72302 -84.48514,84.4851 -45.72303,110.3852 0,119.48 45.72303,110.3852 84.48514,84.4851 z" /><path
         sodipodi:nodetypes="ccccc"
         inkscape:connector-curvature="0"
         id="path460"
         style="fill:none;stroke:#00ff00;stroke-width:0.70866102;stroke-linecap:round;stroke-linejoin:round;stroke-miterlimit:10;stroke-opacity:1;stroke-dasharray:none"
         d="m 455.04767,1317.0547 -68,0 0,195.5 136,0 0,-153" /><path
         sodipodi:nodetypes="ssscs"
         inkscape:connector-curvature="0"
         id="path466"
         style="fill:none;stroke:#00ff00;stroke-width:0.70866102;stroke-linecap:round;stroke-linejoin:round;stroke-miterlimit:10;stroke-opacity:1;stroke-dasharray:none"
         d="m 455.04767,1042.2214 c 18.77768,0 34,15.2223 34,34 0,18.7777 -15.22232,34 -34,34 -18.77768,0 -34,-15.2223 -34,-34 0,-18.7777 15.22232,-34 34,-34 z" /><path
         sodipodi:nodetypes="ssscs"
         inkscape:connector-curvature="0"
         id="path468"
         style="fill:none;stroke:#0000ff;stroke-width:0.70866102;stroke-linecap:round;stroke-linejoin:round;stroke-miterlimit:10;stroke-opacity:1;stroke-dasharray:none"
         d="m 455.04767,1547.4047 c -1.5648,0 -2.83333,1.2685 -2.83333,2.8333 0,1.5649 1.26853,2.8334 2.83333,2.8334 1.56481,0 2.83334,-1.2685 2.83334,-2.8334 0,-1.5648 -1.26853,-2.8333 -2.83334,-2.8333 z" /><path
         sodipodi:nodetypes="ssscs"
         inkscape:connector-curvature="0"
         id="path470"
         style="fill:none;stroke:#0000ff;stroke-width:0.70866102;stroke-linecap:round;stroke-linejoin:round;stroke-miterlimit:10;stroke-opacity:1;stroke-dasharray:none"
         d="m 704.10215,1415.513 c -1.56481,0 -2.83334,1.2686 -2.83334,2.8334 0,1.5648 1.26853,2.8333 2.83334,2.8333 1.5648,0 2.83333,-1.2685 2.83333,-2.8333 0,-1.5648 -1.26853,-2.8334 -2.83333,-2.8334 z" /><path
         sodipodi:nodetypes="ssscs"
         inkscape:connector-curvature="0"
         id="path472"
         style="fill:none;stroke:#0000ff;stroke-width:0.70866102;stroke-linecap:round;stroke-linejoin:round;stroke-miterlimit:10;stroke-opacity:1;stroke-dasharray:none"
         d="m 721.33732,1343.0735 c -1.5648,0 -2.83333,1.2685 -2.83333,2.8333 0,1.5648 1.26853,2.8333 2.83333,2.8333 1.56481,0 2.83334,-1.2685 2.83334,-2.8333 0,-1.5648 -1.26853,-2.8333 -2.83334,-2.8333 z" /><path
         sodipodi:nodetypes="ssscs"
         inkscape:connector-curvature="0"
         id="path474"
         style="fill:none;stroke:#0000ff;stroke-width:0.70866102;stroke-linecap:round;stroke-linejoin:round;stroke-miterlimit:10;stroke-opacity:1;stroke-dasharray:none"
         d="m 732.83184,1346.1534 c -1.5648,0 -2.83333,1.2686 -2.83333,2.8334 0,1.5648 1.26853,2.8333 2.83333,2.8333 1.56481,0 2.83334,-1.2685 2.83334,-2.8333 0,-1.5648 -1.26853,-2.8334 -2.83334,-2.8334 z" /><path
         sodipodi:nodetypes="ssscs"
         inkscape:connector-curvature="0"
         id="path476"
         style="fill:none;stroke:#0000ff;stroke-width:0.70866102;stroke-linecap:round;stroke-linejoin:round;stroke-miterlimit:10;stroke-opacity:1;stroke-dasharray:none"
         d="m 730.73101,1271.7214 c -1.56481,0 -2.83334,1.2685 -2.83334,2.8333 0,1.5648 1.26853,2.8333 2.83334,2.8333 1.5648,0 2.83333,-1.2685 2.83333,-2.8333 0,-1.5648 -1.26853,-2.8333 -2.83333,-2.8333 z" /><path
         sodipodi:nodetypes="ssscs"
         inkscape:connector-curvature="0"
         id="path478"
         style="fill:none;stroke:#0000ff;stroke-width:0.70866102;stroke-linecap:round;stroke-linejoin:round;stroke-miterlimit:10;stroke-opacity:1;stroke-dasharray:none"
         d="m 693.79644,1133.8797 c -1.5648,0 -2.83333,1.2685 -2.83333,2.8333 0,1.5649 1.26853,2.8334 2.83333,2.8334 1.56481,0 2.83334,-1.2685 2.83334,-2.8334 0,-1.5648 -1.26853,-2.8333 -2.83334,-2.8333 z" /><path
         sodipodi:nodetypes="ssscs"
         inkscape:connector-curvature="0"
         id="path480"
         style="fill:none;stroke:#0000ff;stroke-width:0.70866102;stroke-linecap:round;stroke-linejoin:round;stroke-miterlimit:10;stroke-opacity:1;stroke-dasharray:none"
         d="m 732.83184,1197.2893 c -1.5648,0 -2.83333,1.2686 -2.83333,2.8334 0,1.5648 1.26853,2.8333 2.83333,2.8333 1.56481,0 2.83334,-1.2685 2.83334,-2.8333 0,-1.5648 -1.26853,-2.8334 -2.83334,-2.8334 z" /><path
         sodipodi:nodetypes="ssscs"
         inkscape:connector-curvature="0"
         id="path482"
         style="fill:none;stroke:#0000ff;stroke-width:0.70866102;stroke-linecap:round;stroke-linejoin:round;stroke-miterlimit:10;stroke-opacity:1;stroke-dasharray:none"
         d="m 721.33732,1200.3693 c -1.5648,0 -2.83333,1.2685 -2.83333,2.8333 0,1.5648 1.26853,2.8333 2.83333,2.8333 1.56481,0 2.83334,-1.2685 2.83334,-2.8333 0,-1.5648 -1.26853,-2.8333 -2.83334,-2.8333 z" /><path
         sodipodi:nodetypes="ssscs"
         inkscape:connector-curvature="0"
         id="path484"
         style="fill:none;stroke:#0000ff;stroke-width:0.70866102;stroke-linecap:round;stroke-linejoin:round;stroke-miterlimit:10;stroke-opacity:1;stroke-dasharray:none"
         d="m 742.63101,1271.7214 c -1.56481,0 -2.83334,1.2685 -2.83334,2.8333 0,1.5648 1.26853,2.8333 2.83334,2.8333 1.5648,0 2.83333,-1.2685 2.83333,-2.8333 0,-1.5648 -1.26853,-2.8333 -2.83333,-2.8333 z" /><path
         sodipodi:nodetypes="ssscs"
         inkscape:connector-curvature="0"
         id="path486"
         style="fill:none;stroke:#0000ff;stroke-width:0.70866102;stroke-linecap:round;stroke-linejoin:round;stroke-miterlimit:10;stroke-opacity:1;stroke-dasharray:none"
         d="m 693.79644,1409.563 c -1.5648,0 -2.83333,1.2686 -2.83333,2.8334 0,1.5648 1.26853,2.8333 2.83333,2.8333 1.56481,0 2.83334,-1.2685 2.83334,-2.8333 0,-1.5648 -1.26853,-2.8334 -2.83334,-2.8334 z" /><path
         sodipodi:nodetypes="ssscs"
         inkscape:connector-curvature="0"
         id="path488"
         style="fill:none;stroke:#0000ff;stroke-width:0.70866102;stroke-linecap:round;stroke-linejoin:round;stroke-miterlimit:10;stroke-opacity:1;stroke-dasharray:none"
         d="m 658.3998,1475.0735 c -1.56481,0 -2.83333,1.2685 -2.83333,2.8333 0,1.5648 1.26852,2.8334 2.83333,2.8334 1.56481,0 2.83333,-1.2686 2.83333,-2.8334 0,-1.5648 -1.26852,-2.8333 -2.83333,-2.8333 z" /><path
         sodipodi:nodetypes="ssscs"
         inkscape:connector-curvature="0"
         id="path490"
         style="fill:none;stroke:#0000ff;stroke-width:0.70866102;stroke-linecap:round;stroke-linejoin:round;stroke-miterlimit:10;stroke-opacity:1;stroke-dasharray:none"
         d="m 649.98523,1466.6589 c -1.56481,0 -2.83334,1.2686 -2.83334,2.8334 0,1.5648 1.26853,2.8333 2.83334,2.8333 1.5648,0 2.83333,-1.2685 2.83333,-2.8333 0,-1.5648 -1.26853,-2.8334 -2.83333,-2.8334 z" /><path
         sodipodi:nodetypes="ssscs"
         inkscape:connector-curvature="0"
         id="path492"
         style="fill:none;stroke:#0000ff;stroke-width:0.70866102;stroke-linecap:round;stroke-linejoin:round;stroke-miterlimit:10;stroke-opacity:1;stroke-dasharray:none"
         d="m 598.83934,1520.7759 c -1.56481,0 -2.83333,1.2685 -2.83333,2.8333 0,1.5648 1.26852,2.8333 2.83333,2.8333 1.56481,0 2.83333,-1.2685 2.83333,-2.8333 0,-1.5648 -1.26852,-2.8333 -2.83333,-2.8333 z" /><path
         sodipodi:nodetypes="ssscs"
         inkscape:connector-curvature="0"
         id="path494"
         style="fill:none;stroke:#0000ff;stroke-width:0.70866102;stroke-linecap:round;stroke-linejoin:round;stroke-miterlimit:10;stroke-opacity:1;stroke-dasharray:none"
         d="m 526.39977,1538.011 c -1.56481,0 -2.83333,1.2686 -2.83333,2.8334 0,1.5648 1.26852,2.8333 2.83333,2.8333 1.56481,0 2.83333,-1.2685 2.83333,-2.8333 0,-1.5648 -1.26852,-2.8334 -2.83333,-2.8334 z" /><path
         sodipodi:nodetypes="ssscs"
         inkscape:connector-curvature="0"
         id="path496"
         style="fill:none;stroke:#0000ff;stroke-width:0.70866102;stroke-linecap:round;stroke-linejoin:round;stroke-miterlimit:10;stroke-opacity:1;stroke-dasharray:none"
         d="m 529.47972,1549.5055 c -1.56481,0 -2.83334,1.2686 -2.83334,2.8334 0,1.5648 1.26853,2.8333 2.83334,2.8333 1.5648,0 2.83333,-1.2685 2.83333,-2.8333 0,-1.5648 -1.26853,-2.8334 -2.83333,-2.8334 z" /><path
         sodipodi:nodetypes="ssscs"
         inkscape:connector-curvature="0"
         id="path498"
         style="fill:none;stroke:#0000ff;stroke-width:0.70866102;stroke-linecap:round;stroke-linejoin:round;stroke-miterlimit:10;stroke-opacity:1;stroke-dasharray:none"
         d="m 592.88934,1510.4702 c -1.56481,0 -2.83333,1.2685 -2.83333,2.8333 0,1.5648 1.26852,2.8333 2.83333,2.8333 1.56481,0 2.83333,-1.2685 2.83333,-2.8333 0,-1.5648 -1.26852,-2.8333 -2.83333,-2.8333 z" /><path
         sodipodi:nodetypes="ssscs"
         inkscape:connector-curvature="0"
         id="path500"
         style="fill:none;stroke:#0000ff;stroke-width:0.70866102;stroke-linecap:round;stroke-linejoin:round;stroke-miterlimit:10;stroke-opacity:1;stroke-dasharray:none"
         d="m 455.04767,1559.3047 c -1.5648,0 -2.83333,1.2685 -2.83333,2.8333 0,1.5649 1.26853,2.8334 2.83333,2.8334 1.56481,0 2.83334,-1.2685 2.83334,-2.8334 0,-1.5648 -1.26853,-2.8333 -2.83334,-2.8333 z" /><path
         sodipodi:nodetypes="ssscs"
         inkscape:connector-curvature="0"
         id="path502"
         style="fill:none;stroke:#0000ff;stroke-width:0.70866102;stroke-linecap:round;stroke-linejoin:round;stroke-miterlimit:10;stroke-opacity:1;stroke-dasharray:none"
         d="m 380.61563,1549.5055 c -1.56481,0 -2.83333,1.2686 -2.83333,2.8334 0,1.5648 1.26852,2.8333 2.83333,2.8333 1.56481,0 2.83333,-1.2685 2.83333,-2.8333 0,-1.5648 -1.26852,-2.8334 -2.83333,-2.8334 z" /><path
         sodipodi:nodetypes="ssscs"
         inkscape:connector-curvature="0"
         id="path504"
         style="fill:none;stroke:#0000ff;stroke-width:0.70866102;stroke-linecap:round;stroke-linejoin:round;stroke-miterlimit:10;stroke-opacity:1;stroke-dasharray:none"
         d="m 383.69558,1538.011 c -1.56481,0 -2.83334,1.2686 -2.83334,2.8334 0,1.5648 1.26853,2.8333 2.83334,2.8333 1.5648,0 2.83333,-1.2685 2.83333,-2.8333 0,-1.5648 -1.26853,-2.8334 -2.83333,-2.8334 z" /><path
         sodipodi:nodetypes="ssscs"
         inkscape:connector-curvature="0"
         id="path506"
         style="fill:none;stroke:#0000ff;stroke-width:0.70866102;stroke-linecap:round;stroke-linejoin:round;stroke-miterlimit:10;stroke-opacity:1;stroke-dasharray:none"
         d="m 311.25601,1520.7759 c -1.56481,0 -2.83334,1.2685 -2.83334,2.8333 0,1.5648 1.26853,2.8333 2.83334,2.8333 1.5648,0 2.83333,-1.2685 2.83333,-2.8333 0,-1.5648 -1.26853,-2.8333 -2.83333,-2.8333 z" /><path
         sodipodi:nodetypes="ssscs"
         inkscape:connector-curvature="0"
         id="path508"
         style="fill:none;stroke:#0000ff;stroke-width:0.70866102;stroke-linecap:round;stroke-linejoin:round;stroke-miterlimit:10;stroke-opacity:1;stroke-dasharray:none"
         d="m 317.20601,1510.4702 c -1.56481,0 -2.83334,1.2685 -2.83334,2.8333 0,1.5648 1.26853,2.8333 2.83334,2.8333 1.5648,0 2.83333,-1.2685 2.83333,-2.8333 0,-1.5648 -1.26853,-2.8333 -2.83333,-2.8333 z" /><path
         sodipodi:nodetypes="ssscs"
         inkscape:connector-curvature="0"
         id="path510"
         style="fill:none;stroke:#0000ff;stroke-width:0.70866102;stroke-linecap:round;stroke-linejoin:round;stroke-miterlimit:10;stroke-opacity:1;stroke-dasharray:none"
         d="m 251.69555,1475.0735 c -1.56481,0 -2.83333,1.2685 -2.83333,2.8333 0,1.5648 1.26852,2.8334 2.83333,2.8334 1.5648,0 2.83333,-1.2686 2.83333,-2.8334 0,-1.5648 -1.26853,-2.8333 -2.83333,-2.8333 z" /><path
         sodipodi:nodetypes="ssscs"
         inkscape:connector-curvature="0"
         id="path512"
         style="fill:none;stroke:#0000ff;stroke-width:0.70866102;stroke-linecap:round;stroke-linejoin:round;stroke-miterlimit:10;stroke-opacity:1;stroke-dasharray:none"
         d="m 260.11012,1466.6589 c -1.56481,0 -2.83333,1.2686 -2.83333,2.8334 0,1.5648 1.26852,2.8333 2.83333,2.8333 1.56481,0 2.83333,-1.2685 2.83333,-2.8333 0,-1.5648 -1.26852,-2.8334 -2.83333,-2.8334 z" /><path
         sodipodi:nodetypes="ssscs"
         inkscape:connector-curvature="0"
         id="path514"
         style="fill:none;stroke:#0000ff;stroke-width:0.70866102;stroke-linecap:round;stroke-linejoin:round;stroke-miterlimit:10;stroke-opacity:1;stroke-dasharray:none"
         d="m 205.9932,1415.513 c -1.5648,0 -2.83333,1.2686 -2.83333,2.8334 0,1.5648 1.26853,2.8333 2.83333,2.8333 1.56481,0 2.83333,-1.2685 2.83333,-2.8333 0,-1.5648 -1.26852,-2.8334 -2.83333,-2.8334 z" /><path
         sodipodi:nodetypes="ssscs"
         inkscape:connector-curvature="0"
         id="path516"
         style="fill:none;stroke:#0000ff;stroke-width:0.70866102;stroke-linecap:round;stroke-linejoin:round;stroke-miterlimit:10;stroke-opacity:1;stroke-dasharray:none"
         d="m 205.9932,1127.9297 c -1.5648,0 -2.83333,1.2685 -2.83333,2.8333 0,1.5649 1.26853,2.8334 2.83333,2.8334 1.56481,0 2.83333,-1.2685 2.83333,-2.8334 0,-1.5648 -1.26852,-2.8333 -2.83333,-2.8333 z" /><path
         sodipodi:nodetypes="ssscs"
         inkscape:connector-curvature="0"
         id="path518"
         style="fill:none;stroke:#0000ff;stroke-width:0.70866102;stroke-linecap:round;stroke-linejoin:round;stroke-miterlimit:10;stroke-opacity:1;stroke-dasharray:none"
         d="m 188.75802,1200.3693 c -1.56481,0 -2.83333,1.2685 -2.83333,2.8333 0,1.5648 1.26852,2.8333 2.83333,2.8333 1.56481,0 2.83334,-1.2685 2.83334,-2.8333 0,-1.5648 -1.26853,-2.8333 -2.83334,-2.8333 z" /><path
         sodipodi:nodetypes="ssscs"
         inkscape:connector-curvature="0"
         id="path520"
         style="fill:none;stroke:#0000ff;stroke-width:0.70866102;stroke-linecap:round;stroke-linejoin:round;stroke-miterlimit:10;stroke-opacity:1;stroke-dasharray:none"
         d="m 177.2635,1197.2893 c -1.5648,0 -2.83333,1.2686 -2.83333,2.8334 0,1.5648 1.26853,2.8333 2.83333,2.8333 1.56481,0 2.83334,-1.2685 2.83334,-2.8333 0,-1.5648 -1.26853,-2.8334 -2.83334,-2.8334 z" /><path
         sodipodi:nodetypes="ssscs"
         inkscape:connector-curvature="0"
         id="path522"
         style="fill:none;stroke:#0000ff;stroke-width:0.70866102;stroke-linecap:round;stroke-linejoin:round;stroke-miterlimit:10;stroke-opacity:1;stroke-dasharray:none"
         d="m 179.36434,1271.7214 c -1.56481,0 -2.83333,1.2685 -2.83333,2.8333 0,1.5648 1.26852,2.8333 2.83333,2.8333 1.56481,0 2.83333,-1.2685 2.83333,-2.8333 0,-1.5648 -1.26852,-2.8333 -2.83333,-2.8333 z" /><path
         sodipodi:nodetypes="ssscs"
         inkscape:connector-curvature="0"
         id="path524"
         style="fill:none;stroke:#0000ff;stroke-width:0.70866102;stroke-linecap:round;stroke-linejoin:round;stroke-miterlimit:10;stroke-opacity:1;stroke-dasharray:none"
         d="m 216.2989,1409.563 c -1.5648,0 -2.83333,1.2686 -2.83333,2.8334 0,1.5648 1.26853,2.8333 2.83333,2.8333 1.56481,0 2.83334,-1.2685 2.83334,-2.8333 0,-1.5648 -1.26853,-2.8334 -2.83334,-2.8334 z" /><path
         sodipodi:nodetypes="ssscs"
         inkscape:connector-curvature="0"
         id="path526"
         style="fill:none;stroke:#0000ff;stroke-width:0.70866102;stroke-linecap:round;stroke-linejoin:round;stroke-miterlimit:10;stroke-opacity:1;stroke-dasharray:none"
         d="m 177.2635,1346.1534 c -1.5648,0 -2.83333,1.2686 -2.83333,2.8334 0,1.5648 1.26853,2.8333 2.83333,2.8333 1.56481,0 2.83334,-1.2685 2.83334,-2.8333 0,-1.5648 -1.26853,-2.8334 -2.83334,-2.8334 z" /><path
         sodipodi:nodetypes="ssscs"
         inkscape:connector-curvature="0"
         id="path528"
         style="fill:none;stroke:#0000ff;stroke-width:0.70866102;stroke-linecap:round;stroke-linejoin:round;stroke-miterlimit:10;stroke-opacity:1;stroke-dasharray:none"
         d="m 188.75802,1343.0735 c -1.56481,0 -2.83333,1.2685 -2.83333,2.8333 0,1.5648 1.26852,2.8333 2.83333,2.8333 1.56481,0 2.83334,-1.2685 2.83334,-2.8333 0,-1.5648 -1.26853,-2.8333 -2.83334,-2.8333 z" /><path
         sodipodi:nodetypes="ssscs"
         inkscape:connector-curvature="0"
         id="path530"
         style="fill:none;stroke:#0000ff;stroke-width:0.70866102;stroke-linecap:round;stroke-linejoin:round;stroke-miterlimit:10;stroke-opacity:1;stroke-dasharray:none"
         d="m 167.46434,1271.7214 c -1.56481,0 -2.83333,1.2685 -2.83333,2.8333 0,1.5648 1.26852,2.8333 2.83333,2.8333 1.56481,0 2.83333,-1.2685 2.83333,-2.8333 0,-1.5648 -1.26852,-2.8333 -2.83333,-2.8333 z" /><path
         sodipodi:nodetypes="ssscs"
         inkscape:connector-curvature="0"
         id="path532"
         style="fill:none;stroke:#0000ff;stroke-width:0.70866102;stroke-linecap:round;stroke-linejoin:round;stroke-miterlimit:10;stroke-opacity:1;stroke-dasharray:none"
         d="m 704.10215,1127.9297 c -1.56481,0 -2.83334,1.2685 -2.83334,2.8333 0,1.5649 1.26853,2.8334 2.83334,2.8334 1.5648,0 2.83333,-1.2685 2.83333,-2.8334 0,-1.5648 -1.26853,-2.8333 -2.83333,-2.8333 z" /><path
         sodipodi:nodetypes="ssscs"
         inkscape:connector-curvature="0"
         id="path534"
         style="fill:none;stroke:#0000ff;stroke-width:0.70866102;stroke-linecap:round;stroke-linejoin:round;stroke-miterlimit:10;stroke-opacity:1;stroke-dasharray:none"
         d="m 649.98523,1076.7838 c -1.56481,0 -2.83334,1.2686 -2.83334,2.8334 0,1.5648 1.26853,2.8333 2.83334,2.8333 1.5648,0 2.83333,-1.2685 2.83333,-2.8333 0,-1.5648 -1.26853,-2.8334 -2.83333,-2.8334 z" /><path
         sodipodi:nodetypes="ssscs"
         inkscape:connector-curvature="0"
         id="path536"
         style="fill:none;stroke:#0000ff;stroke-width:0.70866102;stroke-linecap:round;stroke-linejoin:round;stroke-miterlimit:10;stroke-opacity:1;stroke-dasharray:none"
         d="m 658.3998,1068.3693 c -1.56481,0 -2.83333,1.2685 -2.83333,2.8333 0,1.5648 1.26852,2.8333 2.83333,2.8333 1.56481,0 2.83333,-1.2685 2.83333,-2.8333 0,-1.5648 -1.26852,-2.8333 -2.83333,-2.8333 z" /><path
         sodipodi:nodetypes="ssscs"
         inkscape:connector-curvature="0"
         id="path538"
         style="fill:none;stroke:#0000ff;stroke-width:0.70866102;stroke-linecap:round;stroke-linejoin:round;stroke-miterlimit:10;stroke-opacity:1;stroke-dasharray:none"
         d="m 592.88934,1032.9726 c -1.56481,0 -2.83333,1.2685 -2.83333,2.8333 0,1.5649 1.26852,2.8334 2.83333,2.8334 1.56481,0 2.83333,-1.2685 2.83333,-2.8334 0,-1.5648 -1.26852,-2.8333 -2.83333,-2.8333 z" /><path
         sodipodi:nodetypes="ssscs"
         inkscape:connector-curvature="0"
         id="path540"
         style="fill:none;stroke:#0000ff;stroke-width:0.70866102;stroke-linecap:round;stroke-linejoin:round;stroke-miterlimit:10;stroke-opacity:1;stroke-dasharray:none"
         d="m 598.83934,1022.6669 c -1.56481,0 -2.83333,1.2685 -2.83333,2.8333 0,1.5648 1.26852,2.8334 2.83333,2.8334 1.56481,0 2.83333,-1.2686 2.83333,-2.8334 0,-1.5648 -1.26852,-2.8333 -2.83333,-2.8333 z" /><path
         sodipodi:nodetypes="ssscs"
         inkscape:connector-curvature="0"
         id="path542"
         style="fill:none;stroke:#0000ff;stroke-width:0.70866102;stroke-linecap:round;stroke-linejoin:round;stroke-miterlimit:10;stroke-opacity:1;stroke-dasharray:none"
         d="m 526.39977,1005.4317 c -1.56481,0 -2.83333,1.2686 -2.83333,2.8334 0,1.5648 1.26852,2.8333 2.83333,2.8333 1.56481,0 2.83333,-1.2685 2.83333,-2.8333 0,-1.5648 -1.26852,-2.8334 -2.83333,-2.8334 z" /><path
         sodipodi:nodetypes="ssscs"
         inkscape:connector-curvature="0"
         id="path544"
         style="fill:none;stroke:#0000ff;stroke-width:0.70866102;stroke-linecap:round;stroke-linejoin:round;stroke-miterlimit:10;stroke-opacity:1;stroke-dasharray:none"
         d="m 529.47972,993.93721 c -1.56481,0 -2.83334,1.26853 -2.83334,2.83333 0,1.56481 1.26853,2.83334 2.83334,2.83334 1.5648,0 2.83333,-1.26853 2.83333,-2.83334 0,-1.5648 -1.26853,-2.83333 -2.83333,-2.83333 z" /><path
         sodipodi:nodetypes="ssscs"
         inkscape:connector-curvature="0"
         id="path546"
         style="fill:none;stroke:#0000ff;stroke-width:0.70866102;stroke-linecap:round;stroke-linejoin:round;stroke-miterlimit:10;stroke-opacity:1;stroke-dasharray:none"
         d="m 455.04767,996.03805 c -1.5648,0 -2.83333,1.26852 -2.83333,2.83333 0,1.56482 1.26853,2.83332 2.83333,2.83332 1.56481,0 2.83334,-1.2685 2.83334,-2.83332 0,-1.56481 -1.26853,-2.83333 -2.83334,-2.83333 z" /><path
         sodipodi:nodetypes="ssscs"
         inkscape:connector-curvature="0"
         id="path548"
         style="fill:none;stroke:#0000ff;stroke-width:0.70866102;stroke-linecap:round;stroke-linejoin:round;stroke-miterlimit:10;stroke-opacity:1;stroke-dasharray:none"
         d="m 317.20601,1032.9726 c -1.56481,0 -2.83334,1.2685 -2.83334,2.8333 0,1.5649 1.26853,2.8334 2.83334,2.8334 1.5648,0 2.83333,-1.2685 2.83333,-2.8334 0,-1.5648 -1.26853,-2.8333 -2.83333,-2.8333 z" /><path
         sodipodi:nodetypes="ssscs"
         inkscape:connector-curvature="0"
         id="path550"
         style="fill:none;stroke:#0000ff;stroke-width:0.70866102;stroke-linecap:round;stroke-linejoin:round;stroke-miterlimit:10;stroke-opacity:1;stroke-dasharray:none"
         d="m 380.61563,993.93721 c -1.56481,0 -2.83333,1.26853 -2.83333,2.83333 0,1.56481 1.26852,2.83334 2.83333,2.83334 1.56481,0 2.83333,-1.26853 2.83333,-2.83334 0,-1.5648 -1.26852,-2.83333 -2.83333,-2.83333 z" /><path
         sodipodi:nodetypes="ssscs"
         inkscape:connector-curvature="0"
         id="path552"
         style="fill:none;stroke:#0000ff;stroke-width:0.70866102;stroke-linecap:round;stroke-linejoin:round;stroke-miterlimit:10;stroke-opacity:1;stroke-dasharray:none"
         d="m 383.69558,1005.4317 c -1.56481,0 -2.83334,1.2686 -2.83334,2.8334 0,1.5648 1.26853,2.8333 2.83334,2.8333 1.5648,0 2.83333,-1.2685 2.83333,-2.8333 0,-1.5648 -1.26853,-2.8334 -2.83333,-2.8334 z" /><path
         sodipodi:nodetypes="ssscs"
         inkscape:connector-curvature="0"
         id="path554"
         style="fill:none;stroke:#0000ff;stroke-width:0.70866102;stroke-linecap:round;stroke-linejoin:round;stroke-miterlimit:10;stroke-opacity:1;stroke-dasharray:none"
         d="m 455.04767,984.13805 c -1.5648,0 -2.83333,1.26852 -2.83333,2.83333 0,1.56481 1.26853,2.83333 2.83333,2.83333 1.56481,0 2.83334,-1.26852 2.83334,-2.83333 0,-1.56481 -1.26853,-2.83333 -2.83334,-2.83333 z" /><path
         sodipodi:nodetypes="ssscs"
         inkscape:connector-curvature="0"
         id="path556"
         style="fill:none;stroke:#0000ff;stroke-width:0.70866102;stroke-linecap:round;stroke-linejoin:round;stroke-miterlimit:10;stroke-opacity:1;stroke-dasharray:none"
         d="m 311.25601,1022.6669 c -1.56481,0 -2.83334,1.2685 -2.83334,2.8333 0,1.5648 1.26853,2.8334 2.83334,2.8334 1.5648,0 2.83333,-1.2686 2.83333,-2.8334 0,-1.5648 -1.26853,-2.8333 -2.83333,-2.8333 z" /><path
         sodipodi:nodetypes="ssscs"
         inkscape:connector-curvature="0"
         id="path558"
         style="fill:none;stroke:#0000ff;stroke-width:0.70866102;stroke-linecap:round;stroke-linejoin:round;stroke-miterlimit:10;stroke-opacity:1;stroke-dasharray:none"
         d="m 260.11012,1076.7838 c -1.56481,0 -2.83333,1.2686 -2.83333,2.8334 0,1.5648 1.26852,2.8333 2.83333,2.8333 1.56481,0 2.83333,-1.2685 2.83333,-2.8333 0,-1.5648 -1.26852,-2.8334 -2.83333,-2.8334 z" /><path
         sodipodi:nodetypes="ssscs"
         inkscape:connector-curvature="0"
         id="path560"
         style="fill:none;stroke:#0000ff;stroke-width:0.70866102;stroke-linecap:round;stroke-linejoin:round;stroke-miterlimit:10;stroke-opacity:1;stroke-dasharray:none"
         d="m 251.69555,1068.3693 c -1.56481,0 -2.83333,1.2685 -2.83333,2.8333 0,1.5648 1.26852,2.8333 2.83333,2.8333 1.5648,0 2.83333,-1.2685 2.83333,-2.8333 0,-1.5648 -1.26853,-2.8333 -2.83333,-2.8333 z" /><path
         sodipodi:nodetypes="ssscs"
         inkscape:connector-curvature="0"
         id="path562"
         style="fill:none;stroke:#0000ff;stroke-width:0.70866102;stroke-linecap:round;stroke-linejoin:round;stroke-miterlimit:10;stroke-opacity:1;stroke-dasharray:none"
         d="m 216.2989,1133.8797 c -1.5648,0 -2.83333,1.2685 -2.83333,2.8333 0,1.5649 1.26853,2.8334 2.83333,2.8334 1.56481,0 2.83334,-1.2685 2.83334,-2.8334 0,-1.5648 -1.26853,-2.8333 -2.83334,-2.8333 z" /><path
         sodipodi:nodetypes="ccc"
         inkscape:connector-curvature="0"
         id="path570"
         style="fill:none;stroke:#0000ff;stroke-width:0.70866102;stroke-linecap:round;stroke-linejoin:round;stroke-miterlimit:10;stroke-opacity:1;stroke-dasharray:none"
         d="m 455.04767,1317.0547 0,42.5 68,0 0,-42.5 z" /></g><path
       d="m 372.06713,885.98688 16.97049,0 3.68923,-0.73785 3.68924,-2.21354 2.95139,-2.95139 1.47569,-4.42708 0,-20.65972 -1.47569,-4.42709 -2.21355,-2.95138 -2.95138,-2.21355 -3.68924,-1.47569 -18.44618,0 0,63.45486"
       style="fill:none;stroke:#000000;stroke-width:0.85039401;stroke-linecap:round;stroke-linejoin:round;stroke-miterlimit:10;stroke-opacity:1;stroke-dasharray:none"
       id="path572"
       inkscape:connector-curvature="0" /><path
       d="m 450.4265,865.32716 -18.44618,0 -4.42708,-1.4757 -2.95139,-2.21354 -1.47569,-2.21354 -1.4757,-3.68924 0,-2.95138 1.4757,-2.95139 1.47569,-2.21354 2.21354,-2.21355 2.95139,-1.47569 20.65972,0 0,30.25174 -0.73784,3.68923 -1.4757,2.95139 -2.21354,2.21354 -2.95139,2.21354 -4.42708,0.73785 -13.28125,0"
       style="fill:none;stroke:#000000;stroke-width:0.85039401;stroke-linecap:round;stroke-linejoin:round;stroke-miterlimit:10;stroke-opacity:1;stroke-dasharray:none"
       id="path574"
       inkscape:connector-curvature="0" /><path
       d="m 471.2338,847.61883 3.68923,-1.4757 4.42709,-1.47569 5.16493,-0.73785 5.90277,0 4.42709,0.73785 2.95139,2.21354 2.21354,3.68923 0,2.95139 -1.4757,3.68924 -2.21354,2.95139 -2.95139,1.47569 -18.44618,8.85417 -2.21354,2.21354 -1.47569,2.95139 0,2.21354 0.73784,2.95139 2.21354,2.95139 2.95139,2.21354 4.42709,0 5.90277,-0.73785 5.90278,-1.47569 3.68924,-1.4757"
       style="fill:none;stroke:#000000;stroke-width:0.85039401;stroke-linecap:round;stroke-linejoin:round;stroke-miterlimit:10;stroke-opacity:1;stroke-dasharray:none"
       id="path576"
       inkscape:connector-curvature="0" /><path
       d="m 520.81713,865.32716 28.77604,0 0,8.85417 -1.47569,3.68923 -2.21354,3.68924 -3.68924,2.95139 -3.68924,1.47569 -3.68923,0.73785 -5.16493,-1.4757 -3.68924,-2.21354 -2.95139,-3.68924 -2.21354,-5.90277 0,-19.92188 1.47569,-4.42708 2.21355,-2.95139 2.95138,-1.47569 4.42709,-0.73785 17.70833,0"
       style="fill:none;stroke:#000000;stroke-width:0.85039401;stroke-linecap:round;stroke-linejoin:round;stroke-miterlimit:10;stroke-opacity:1;stroke-dasharray:none"
       id="path578"
       inkscape:connector-curvature="0" /><path
       d="m 218.95473,758.94546 3.6892,-1.4757 4.4271,-1.47569 5.1649,-0.73785 5.9028,0 4.4271,0.73785 2.9514,2.21354 2.2135,3.68924 0,2.95139 -1.4757,3.68923 -2.2135,2.95139 -2.9514,1.4757 -18.4462,8.85416 -2.2135,2.21354 -1.4757,2.95139 0,2.21354 0.7378,2.95139 2.2136,2.95139 2.9513,2.21354 4.4271,0 5.9028,-0.73784 5.9028,-1.4757 3.6892,-1.47569"
       style="fill:none;stroke:#000000;stroke-width:0.85039401;stroke-linecap:round;stroke-linejoin:round;stroke-miterlimit:10;stroke-opacity:1;stroke-dasharray:none"
       id="path580"
       inkscape:connector-curvature="0" /><path
       d="m 268.53803,797.31351 0,-30.25173 0.7379,-3.68924 2.2135,-3.68923 2.9514,-2.95139 3.6892,-1.4757 19.184,0 0,42.05729"
       style="fill:none;stroke:#000000;stroke-width:0.85039401;stroke-linecap:round;stroke-linejoin:round;stroke-miterlimit:10;stroke-opacity:1;stroke-dasharray:none"
       id="path582"
       inkscape:connector-curvature="0" /><path
       d="m 318.12133,755.25622 0,42.05729 21.3976,0 0,-6.64062"
       style="fill:none;stroke:#000000;stroke-width:0.85039401;stroke-linecap:round;stroke-linejoin:round;stroke-miterlimit:10;stroke-opacity:1;stroke-dasharray:none"
       id="path584"
       inkscape:connector-curvature="0" /><path
       d="m 360.62133,755.25622 0,42.05729 21.3976,0 0,-6.64062"
       style="fill:none;stroke:#000000;stroke-width:0.85039401;stroke-linecap:round;stroke-linejoin:round;stroke-miterlimit:10;stroke-opacity:1;stroke-dasharray:none"
       id="path586"
       inkscape:connector-curvature="0" /><path
       d="m 417.87833,755.25622 4.4271,0.73785 3.6892,1.47569 2.9514,2.95139 1.4757,2.95139 1.4757,3.68924 0,16.97048 -0.7379,3.68924 -2.2135,3.68924 -2.2136,2.95138 -2.2135,1.4757 -3.6892,1.47569 -3.6893,0.73785 -3.6892,-0.73785 -3.6892,-2.21354 -2.9514,-2.21354 -1.4757,-2.21354 -2.2136,-5.16493 0,-16.97049 1.4757,-4.42708 2.2136,-3.68924 2.9514,-2.95139 2.9514,-1.47569 5.1649,-0.73785"
       style="fill:none;stroke:#000000;stroke-width:0.85039401;stroke-linecap:round;stroke-linejoin:round;stroke-miterlimit:10;stroke-opacity:1;stroke-dasharray:none"
       id="path588"
       inkscape:connector-curvature="0" /><path
       d="m 452.70473,797.31351 0,-30.25173 0.7378,-3.68924 2.2136,-3.68923 2.9513,-2.95139 3.6893,-1.4757 19.184,0 0,42.05729"
       style="fill:none;stroke:#000000;stroke-width:0.85039401;stroke-linecap:round;stroke-linejoin:round;stroke-miterlimit:10;stroke-opacity:1;stroke-dasharray:none"
       id="path590"
       inkscape:connector-curvature="0" /><path
       d="m 502.28803,755.25622 0,42.79514 16.9705,0 3.6892,-1.47569 2.9514,-1.4757 2.9514,-2.95139 1.4757,-2.95139 0.7378,-3.68923 0,-30.25174"
       style="fill:none;stroke:#000000;stroke-width:0.85039401;stroke-linecap:round;stroke-linejoin:round;stroke-miterlimit:10;stroke-opacity:1;stroke-dasharray:none"
       id="path592"
       inkscape:connector-curvature="0" /><path
       d="m 580.64743,797.31351 -16.9705,0 -3.6892,-0.73784 -3.6893,-2.21355 -2.2135,-2.21354 -2.2136,-5.16493 0,-20.65972 1.4757,-4.42708 2.9514,-3.68924 3.6893,-2.21354 3.6892,-0.73785 16.9705,0 0,63.45486"
       style="fill:none;stroke:#000000;stroke-width:0.85039401;stroke-linecap:round;stroke-linejoin:round;stroke-miterlimit:10;stroke-opacity:1;stroke-dasharray:none"
       id="path594"
       inkscape:connector-curvature="0" /><path
       d="m 631.05759,794.80082 28.776,-42.05729"
       style="fill:none;stroke:#000000;stroke-width:0.85039401;stroke-linecap:round;stroke-linejoin:round;stroke-miterlimit:10;stroke-opacity:1;stroke-dasharray:none"
       id="path596"
       inkscape:connector-curvature="0" /><path
       d="m 631.05759,752.74353 28.776,42.05729"
       style="fill:none;stroke:#000000;stroke-width:0.85039401;stroke-linecap:round;stroke-linejoin:round;stroke-miterlimit:10;stroke-opacity:1;stroke-dasharray:none"
       id="path598"
       inkscape:connector-curvature="0" /><path
       d="m 694.65999,816.19839 -14.0191,-49.43577 35.4167,0"
       style="fill:none;stroke:#000000;stroke-width:0.85039401;stroke-linecap:round;stroke-linejoin:round;stroke-miterlimit:10;stroke-opacity:1;stroke-dasharray:none"
       id="path600"
       inkscape:connector-curvature="0" /><path
       d="m 705.72769,780.78172 0,-28.03819"
       style="fill:none;stroke:#000000;stroke-width:0.85039401;stroke-linecap:round;stroke-linejoin:round;stroke-miterlimit:10;stroke-opacity:1;stroke-dasharray:none"
       id="path602"
       inkscape:connector-curvature="0" /><path
       d="m 1846.983,849.37601 0,49.43576 0.7378,4.42709 2.2135,4.42708 3.6893,2.95139 2.9514,1.47569 4.4271,0.73785"
       style="fill:none;stroke:#000000;stroke-width:0.85039401;stroke-linecap:round;stroke-linejoin:round;stroke-miterlimit:10;stroke-opacity:1;stroke-dasharray:none"
       id="path604"
       inkscape:connector-curvature="0" /><path
       d="m 1839.6045,891.4333 21.3976,0"
       style="fill:none;stroke:#000000;stroke-width:0.85039401;stroke-linecap:round;stroke-linejoin:round;stroke-miterlimit:10;stroke-opacity:1;stroke-dasharray:none"
       id="path606"
       inkscape:connector-curvature="0" /><path
       d="m 1896.8614,849.37601 4.4271,0.73785 3.6893,1.47569 2.9513,2.95139 1.4757,2.95139 1.4757,3.68923 0,16.97049 -0.7378,3.68924 -2.2136,3.68923 -2.2135,2.95139 -2.2135,1.47569 -3.6893,1.4757 -3.6892,0.73785 -3.6893,-0.73785 -3.6892,-2.21354 -2.9514,-2.21354 -1.4757,-2.21354 -2.2135,-5.16494 0,-16.97048 1.4757,-4.42708 2.2135,-3.68924 2.9514,-2.95139 2.9514,-1.47569 5.1649,-0.73785"
       style="fill:none;stroke:#000000;stroke-width:0.85039401;stroke-linecap:round;stroke-linejoin:round;stroke-miterlimit:10;stroke-opacity:1;stroke-dasharray:none"
       id="path608"
       inkscape:connector-curvature="0" /><path
       d="m 1960.4639,870.77358 -18.4462,0 -4.4271,-1.4757 -2.9514,-2.21354 -1.4757,-2.21354 -1.4757,-3.68924 0,-2.95138 1.4757,-2.95139 1.4757,-2.21355 2.2136,-2.21354 2.9513,-1.47569 20.6598,0 0,30.25173 -0.7379,3.68924 -1.4757,2.95139 -2.2135,2.21354 -2.9514,2.21354 -4.4271,0.73785 -13.2812,0"
       style="fill:none;stroke:#000000;stroke-width:0.85039401;stroke-linecap:round;stroke-linejoin:round;stroke-miterlimit:10;stroke-opacity:1;stroke-dasharray:none"
       id="path610"
       inkscape:connector-curvature="0" /><path
       d="m 1981.2712,849.37601 0,42.79514 30.2517,0 5.1649,-1.4757 3.6893,-2.21354 2.2135,-2.95139 1.4757,-3.68923 0,-32.46528"
       style="fill:none;stroke:#000000;stroke-width:0.85039401;stroke-linecap:round;stroke-linejoin:round;stroke-miterlimit:10;stroke-opacity:1;stroke-dasharray:none"
       id="path612"
       inkscape:connector-curvature="0" /><path
       d="m 2002.6687,849.37601 0,42.79514"
       style="fill:none;stroke:#000000;stroke-width:0.85039401;stroke-linecap:round;stroke-linejoin:round;stroke-miterlimit:10;stroke-opacity:1;stroke-dasharray:none"
       id="path614"
       inkscape:connector-curvature="0" /><text
       xml:space="preserve"
       style="font-size:44.79999924px;font-style:normal;font-variant:normal;font-weight:normal;font-stretch:normal;text-align:start;line-height:125%;letter-spacing:0px;word-spacing:0px;text-anchor:start;fill:#000000;fill-opacity:1;stroke:none;font-family:Linux Libertine O;-inkscape-font-specification:Linux Libertine O"
       x="325.99408"
       y="-585.41711"
       id="text4224"
       sodipodi:linespacing="125%"
       transform="scale(1,-1)"><tspan
         sodipodi:role="line"
         x="325.99408"
         y="-585.41711"
         id="tspan4228">Red: Outer cut thru</tspan><tspan
         sodipodi:role="line"
         x="325.99408"
         y="-529.41711"
         id="tspan4232">Blue: Inner cut thru</tspan><tspan
         sodipodi:role="line"
         x="325.99408"
         y="-473.41711"
         id="tspan4234">Green: line engraving (partial cut)</tspan><tspan
         sodipodi:role="line"
         x="325.99408"
         y="-417.41711"
         id="tspan4236">Black: information only</tspan></text>
<g
       transform="matrix(-1,0,0,-1,1628.2809,2351.6384)"
       id="g4506"><path
         d="m 1343.3584,1371.9323 -110.3851,45.723 -119.48,0 -110.3852,-45.723 -42.24257,-42.2426 7.01214,-7.0122 c 1.10649,1.1065 2.90046,1.1065 4.00694,0 1.10649,-1.1064 1.10649,-2.9004 0,-4.0069 l 1.00174,-1.0017 c 110.64855,110.6485 290.04525,110.6485 400.69385,0 l 1.0017,1.0017 c -1.1065,1.1065 -1.1065,2.9005 0,4.0069 1.1065,1.1065 2.9005,1.1065 4.007,0 l 7.0121,7.0122 z"
         style="fill:none;stroke:#ff0000;stroke-width:0.70866102;stroke-linecap:round;stroke-linejoin:round;stroke-miterlimit:10;stroke-opacity:1;stroke-dasharray:none"
         id="path4508"
         inkscape:connector-curvature="0"
         sodipodi:nodetypes="ccccccccccccccc" /><path
         d="m 1317.0249,1363.5431 c -1.5648,0 -2.8333,1.2685 -2.8333,2.8333 0,1.5648 1.2685,2.8334 2.8333,2.8334 1.5648,0 2.8334,-1.2686 2.8334,-2.8334 0,-1.5648 -1.2686,-2.8333 -2.8334,-2.8333 z"
         style="fill:none;stroke:#0000ff;stroke-width:0.70866102;stroke-linecap:round;stroke-linejoin:round;stroke-miterlimit:10;stroke-opacity:1;stroke-dasharray:none"
         id="path4510"
         inkscape:connector-curvature="0"
         sodipodi:nodetypes="ssscs" /><path
         d="m 1247.6653,1392.2728 c -1.5648,0 -2.8333,1.2685 -2.8333,2.8333 0,1.5648 1.2685,2.8334 2.8333,2.8334 1.5648,0 2.8333,-1.2686 2.8333,-2.8334 0,-1.5648 -1.2685,-2.8333 -2.8333,-2.8333 z"
         style="fill:none;stroke:#0000ff;stroke-width:0.70866102;stroke-linecap:round;stroke-linejoin:round;stroke-miterlimit:10;stroke-opacity:1;stroke-dasharray:none"
         id="path4512"
         inkscape:connector-curvature="0"
         sodipodi:nodetypes="ssscs" /><path
         d="m 1173.2333,1402.072 c -1.5648,0 -2.8334,1.2685 -2.8334,2.8333 0,1.5648 1.2686,2.8333 2.8334,2.8333 1.5648,0 2.8333,-1.2685 2.8333,-2.8333 0,-1.5648 -1.2685,-2.8333 -2.8333,-2.8333 z"
         style="fill:none;stroke:#0000ff;stroke-width:0.70866102;stroke-linecap:round;stroke-linejoin:round;stroke-miterlimit:10;stroke-opacity:1;stroke-dasharray:none"
         id="path4514"
         inkscape:connector-curvature="0"
         sodipodi:nodetypes="ssscs" /><path
         d="m 1098.8012,1392.2728 c -1.5648,0 -2.8333,1.2685 -2.8333,2.8333 0,1.5648 1.2685,2.8334 2.8333,2.8334 1.5648,0 2.8334,-1.2686 2.8334,-2.8334 0,-1.5648 -1.2686,-2.8333 -2.8334,-2.8333 z"
         style="fill:none;stroke:#0000ff;stroke-width:0.70866102;stroke-linecap:round;stroke-linejoin:round;stroke-miterlimit:10;stroke-opacity:1;stroke-dasharray:none"
         id="path4516"
         inkscape:connector-curvature="0"
         sodipodi:nodetypes="ssscs" /><path
         d="m 1029.4416,1363.5431 c -1.5648,0 -2.8333,1.2685 -2.8333,2.8333 0,1.5648 1.2685,2.8334 2.8333,2.8334 1.5648,0 2.8333,-1.2686 2.8333,-2.8334 0,-1.5648 -1.2685,-2.8333 -2.8333,-2.8333 z"
         style="fill:none;stroke:#0000ff;stroke-width:0.70866102;stroke-linecap:round;stroke-linejoin:round;stroke-miterlimit:10;stroke-opacity:1;stroke-dasharray:none"
         id="path4518"
         inkscape:connector-curvature="0"
         sodipodi:nodetypes="ssscs" /></g><g
       id="g4520"
       transform="matrix(0,-1,1,0,-621.61171,2447.788)"><path
         sodipodi:nodetypes="ccccccccccccccc"
         inkscape:connector-curvature="0"
         id="path4522"
         style="fill:none;stroke:#ff0000;stroke-width:0.70866102;stroke-linecap:round;stroke-linejoin:round;stroke-miterlimit:10;stroke-opacity:1;stroke-dasharray:none"
         d="m 1343.3584,1371.9323 -110.3851,45.723 -119.48,0 -110.3852,-45.723 -42.24257,-42.2426 7.01214,-7.0122 c 1.10649,1.1065 2.90046,1.1065 4.00694,0 1.10649,-1.1064 1.10649,-2.9004 0,-4.0069 l 1.00174,-1.0017 c 110.64855,110.6485 290.04525,110.6485 400.69385,0 l 1.0017,1.0017 c -1.1065,1.1065 -1.1065,2.9005 0,4.0069 1.1065,1.1065 2.9005,1.1065 4.007,0 l 7.0121,7.0122 z" /><path
         sodipodi:nodetypes="ssscs"
         inkscape:connector-curvature="0"
         id="path4524"
         style="fill:none;stroke:#0000ff;stroke-width:0.70866102;stroke-linecap:round;stroke-linejoin:round;stroke-miterlimit:10;stroke-opacity:1;stroke-dasharray:none"
         d="m 1317.0249,1363.5431 c -1.5648,0 -2.8333,1.2685 -2.8333,2.8333 0,1.5648 1.2685,2.8334 2.8333,2.8334 1.5648,0 2.8334,-1.2686 2.8334,-2.8334 0,-1.5648 -1.2686,-2.8333 -2.8334,-2.8333 z" /><path
         sodipodi:nodetypes="ssscs"
         inkscape:connector-curvature="0"
         id="path4526"
         style="fill:none;stroke:#0000ff;stroke-width:0.70866102;stroke-linecap:round;stroke-linejoin:round;stroke-miterlimit:10;stroke-opacity:1;stroke-dasharray:none"
         d="m 1247.6653,1392.2728 c -1.5648,0 -2.8333,1.2685 -2.8333,2.8333 0,1.5648 1.2685,2.8334 2.8333,2.8334 1.5648,0 2.8333,-1.2686 2.8333,-2.8334 0,-1.5648 -1.2685,-2.8333 -2.8333,-2.8333 z" /><path
         sodipodi:nodetypes="ssscs"
         inkscape:connector-curvature="0"
         id="path4528"
         style="fill:none;stroke:#0000ff;stroke-width:0.70866102;stroke-linecap:round;stroke-linejoin:round;stroke-miterlimit:10;stroke-opacity:1;stroke-dasharray:none"
         d="m 1173.2333,1402.072 c -1.5648,0 -2.8334,1.2685 -2.8334,2.8333 0,1.5648 1.2686,2.8333 2.8334,2.8333 1.5648,0 2.8333,-1.2685 2.8333,-2.8333 0,-1.5648 -1.2685,-2.8333 -2.8333,-2.8333 z" /><path
         sodipodi:nodetypes="ssscs"
         inkscape:connector-curvature="0"
         id="path4530"
         style="fill:none;stroke:#0000ff;stroke-width:0.70866102;stroke-linecap:round;stroke-linejoin:round;stroke-miterlimit:10;stroke-opacity:1;stroke-dasharray:none"
         d="m 1098.8012,1392.2728 c -1.5648,0 -2.8333,1.2685 -2.8333,2.8333 0,1.5648 1.2685,2.8334 2.8333,2.8334 1.5648,0 2.8334,-1.2686 2.8334,-2.8334 0,-1.5648 -1.2686,-2.8333 -2.8334,-2.8333 z" /><path
         sodipodi:nodetypes="ssscs"
         inkscape:connector-curvature="0"
         id="path4532"
         style="fill:none;stroke:#0000ff;stroke-width:0.70866102;stroke-linecap:round;stroke-linejoin:round;stroke-miterlimit:10;stroke-opacity:1;stroke-dasharray:none"
         d="m 1029.4416,1363.5431 c -1.5648,0 -2.8333,1.2685 -2.8333,2.8333 0,1.5648 1.2685,2.8334 2.8333,2.8334 1.5648,0 2.8333,-1.2686 2.8333,-2.8334 0,-1.5648 -1.2685,-2.8333 -2.8333,-2.8333 z" /></g><g
       transform="matrix(0,-1,-1,0,1529.292,2447.788)"
       id="g4534"><path
         d="m 1343.3584,1371.9323 -110.3851,45.723 -119.48,0 -110.3852,-45.723 -42.24257,-42.2426 7.01214,-7.0122 c 1.10649,1.1065 2.90046,1.1065 4.00694,0 1.10649,-1.1064 1.10649,-2.9004 0,-4.0069 l 1.00174,-1.0017 c 110.64855,110.6485 290.04525,110.6485 400.69385,0 l 1.0017,1.0017 c -1.1065,1.1065 -1.1065,2.9005 0,4.0069 1.1065,1.1065 2.9005,1.1065 4.007,0 l 7.0121,7.0122 z"
         style="fill:none;stroke:#ff0000;stroke-width:0.70866102;stroke-linecap:round;stroke-linejoin:round;stroke-miterlimit:10;stroke-opacity:1;stroke-dasharray:none"
         id="path4536"
         inkscape:connector-curvature="0"
         sodipodi:nodetypes="ccccccccccccccc" /><path
         d="m 1317.0249,1363.5431 c -1.5648,0 -2.8333,1.2685 -2.8333,2.8333 0,1.5648 1.2685,2.8334 2.8333,2.8334 1.5648,0 2.8334,-1.2686 2.8334,-2.8334 0,-1.5648 -1.2686,-2.8333 -2.8334,-2.8333 z"
         style="fill:none;stroke:#0000ff;stroke-width:0.70866102;stroke-linecap:round;stroke-linejoin:round;stroke-miterlimit:10;stroke-opacity:1;stroke-dasharray:none"
         id="path4538"
         inkscape:connector-curvature="0"
         sodipodi:nodetypes="ssscs" /><path
         d="m 1247.6653,1392.2728 c -1.5648,0 -2.8333,1.2685 -2.8333,2.8333 0,1.5648 1.2685,2.8334 2.8333,2.8334 1.5648,0 2.8333,-1.2686 2.8333,-2.8334 0,-1.5648 -1.2685,-2.8333 -2.8333,-2.8333 z"
         style="fill:none;stroke:#0000ff;stroke-width:0.70866102;stroke-linecap:round;stroke-linejoin:round;stroke-miterlimit:10;stroke-opacity:1;stroke-dasharray:none"
         id="path4540"
         inkscape:connector-curvature="0"
         sodipodi:nodetypes="ssscs" /><path
         d="m 1173.2333,1402.072 c -1.5648,0 -2.8334,1.2685 -2.8334,2.8333 0,1.5648 1.2686,2.8333 2.8334,2.8333 1.5648,0 2.8333,-1.2685 2.8333,-2.8333 0,-1.5648 -1.2685,-2.8333 -2.8333,-2.8333 z"
         style="fill:none;stroke:#0000ff;stroke-width:0.70866102;stroke-linecap:round;stroke-linejoin:round;stroke-miterlimit:10;stroke-opacity:1;stroke-dasharray:none"
         id="path4542"
         inkscape:connector-curvature="0"
         sodipodi:nodetypes="ssscs" /><path
         d="m 1098.8012,1392.2728 c -1.5648,0 -2.8333,1.2685 -2.8333,2.8333 0,1.5648 1.2685,2.8334 2.8333,2.8334 1.5648,0 2.8334,-1.2686 2.8334,-2.8334 0,-1.5648 -1.2686,-2.8333 -2.8334,-2.8333 z"
         style="fill:none;stroke:#0000ff;stroke-width:0.70866102;stroke-linecap:round;stroke-linejoin:round;stroke-miterlimit:10;stroke-opacity:1;stroke-dasharray:none"
         id="path4544"
         inkscape:connector-curvature="0"
         sodipodi:nodetypes="ssscs" /><path
         d="m 1029.4416,1363.5431 c -1.5648,0 -2.8333,1.2685 -2.8333,2.8333 0,1.5648 1.2685,2.8334 2.8333,2.8334 1.5648,0 2.8333,-1.2686 2.8333,-2.8334 0,-1.5648 -1.2685,-2.8333 -2.8333,-2.8333 z"
         style="fill:none;stroke:#0000ff;stroke-width:0.70866102;stroke-linecap:round;stroke-linejoin:round;stroke-miterlimit:10;stroke-opacity:1;stroke-dasharray:none"
         id="path4546"
         inkscape:connector-curvature="0"
         sodipodi:nodetypes="ssscs" /></g></g></svg>