<?xml version="1.0" encoding="UTF-8" standalone="no"?>
<!-- Created with Inkscape (http://www.inkscape.org/) -->

<svg
   xmlns:dc="http://purl.org/dc/elements/1.1/"
   xmlns:cc="http://creativecommons.org/ns#"
   xmlns:rdf="http://www.w3.org/1999/02/22-rdf-syntax-ns#"
   xmlns:svg="http://www.w3.org/2000/svg"
   xmlns="http://www.w3.org/2000/svg"
   xmlns:sodipodi="http://sodipodi.sourceforge.net/DTD/sodipodi-0.dtd"
   xmlns:inkscape="http://www.inkscape.org/namespaces/inkscape"
   id="svg2"
   version="1.1"
   inkscape:version="0.48.4 r9939"
   width="2978.75"
   height="2106.25"
   xml:space="preserve"
   sodipodi:docname="button_backplate.svg"><metadata
     id="metadata8"><rdf:RDF><cc:Work
         rdf:about=""><dc:format>image/svg+xml</dc:format><dc:type
           rdf:resource="http://purl.org/dc/dcmitype/StillImage" /><dc:title></dc:title></cc:Work></rdf:RDF></metadata><defs
     id="defs6"><clipPath
       clipPathUnits="userSpaceOnUse"
       id="clipPath16"><path
         d="m 0,0 2383,0 0,1683 L 0,1683 0,0 z"
         id="path18"
         inkscape:connector-curvature="0" /></clipPath></defs><sodipodi:namedview
     pagecolor="#ffffff"
     bordercolor="#666666"
     borderopacity="1"
     objecttolerance="10"
     gridtolerance="10"
     guidetolerance="10"
     inkscape:pageopacity="0"
     inkscape:pageshadow="2"
     inkscape:window-width="1366"
     inkscape:window-height="702"
     id="namedview4"
     showgrid="false"
     inkscape:zoom="0.5"
     inkscape:cx="1222.2491"
     inkscape:cy="1538.6017"
     inkscape:window-x="0"
     inkscape:window-y="27"
     inkscape:window-maximized="1"
     inkscape:current-layer="g10"
     inkscape:document-units="mm"
     units="mm"
     inkscape:object-nodes="true"><inkscape:grid
       type="xygrid"
       id="grid3666"
       empspacing="5"
       visible="true"
       enabled="true"
       snapvisiblegridlinesonly="true"
       units="mm"
       spacingx="1mm"
       spacingy="1mm" /></sodipodi:namedview><g
     id="g10"
     inkscape:groupmode="layer"
     inkscape:label="Floating Gym Jams - button backplate"
     transform="matrix(1.25,0,0,-1.25,0,2106.2501)"><path
       d="m 1938.3249,1343.9959 0,-42.5 68,0 0,42.5 z"
       style="fill:none;stroke:#0000ff;stroke-width:0.70866101999999997;stroke-linecap:round;stroke-linejoin:round;stroke-miterlimit:10;stroke-opacity:1;stroke-dasharray:none"
       id="path22"
       inkscape:connector-curvature="0"
       sodipodi:nodetypes="ccccc" /><path
       d="m 2172.7308,1088.701 c 5.5324,-5.5324 14.5023,-5.5324 20.0347,0 l 0.1697,0.1697 45.723,110.3851 0,119.4801 -45.723,110.3851 -0.1697,0.1697 c -5.5324,5.5325 -14.5023,5.5325 -20.0347,0 l -70.1214,-70.1214 c -5.5325,-5.5324 -14.5023,-5.5324 -20.0347,0 l -44.0763,44.0763 c -5.5325,5.5325 -5.5325,14.5023 0,20.0347 l 70.1214,70.1215 c 5.5324,5.5324 5.5324,14.5022 0,20.0347 l -0.1697,0.1697 -110.3852,45.723 -119.48,0 -110.3852,-45.723 -0.1697,-0.1697 c -5.5324,-5.5325 -5.5324,-14.5023 0,-20.0347 l 70.1214,-70.1215 c 5.5325,-5.5324 5.5325,-14.5022 0,-20.0347 l -44.0763,-44.0763 c -5.5324,-5.5324 -14.5023,-5.5324 -20.0347,0 l -70.1214,70.1214 c -5.5324,5.5325 -14.5023,5.5325 -20.0347,0 l -0.1697,-0.1697 -45.723,-110.3851 0,-119.4801 45.723,-110.3851 0.1697,-0.1697 c 5.5324,-5.5324 14.5023,-5.5324 20.0347,0 l 70.1214,70.1214 c 5.5324,5.5324 14.5023,5.5324 20.0347,0 l 44.0763,-44.0763 c 5.5325,-5.5324 5.5325,-14.5023 0,-20.0347 L 1768.03,1024.59 c -5.5324,-5.5325 -5.5324,-14.5023 0,-20.0347 l 0.1697,-0.1697 110.3852,-45.72307 119.48,0 110.3852,45.72307 0.1697,0.1697 c 5.5324,5.5324 5.5324,14.5022 0,20.0347 l -70.1214,70.1214 c -5.5325,5.5324 -5.5325,14.5023 0,20.0347 l 44.0763,44.0763 c 5.5324,5.5324 14.5022,5.5324 20.0347,0 z"
       style="fill:none;stroke:#ff0000;stroke-width:0.70866101999999997;stroke-linecap:round;stroke-linejoin:round;stroke-miterlimit:10;stroke-opacity:1;stroke-dasharray:none"
       id="path96"
       inkscape:connector-curvature="0"
       sodipodi:nodetypes="ccccccccccccccccccccccccccccccccccccccccccccccccc" /><path
       d="m 2013.3507,1528.0976 c -0.2607,-1.5429 -1.7228,-2.5824 -3.2657,-2.3217 -1.543,0.2607 -2.5825,1.7228 -2.3218,3.2658 0.093,0.5515 0.3476,1.0632 0.7311,1.4704 l 1.4689,6.7399 c 0.2607,1.543 1.7228,2.5825 3.2658,2.3218 1.5429,-0.2607 2.5824,-1.7228 2.3217,-3.2658 -0.093,-0.5515 -0.3476,-1.0632 -0.7311,-1.4704 z"
       style="fill:none;stroke:#0000ff;stroke-width:0.70866101999999997;stroke-linecap:round;stroke-linejoin:round;stroke-miterlimit:10;stroke-opacity:1;stroke-dasharray:none"
       id="path126"
       inkscape:connector-curvature="0"
       sodipodi:nodetypes="ccccccccc" /><path
       d="m 2079.5402,1509.2293 c 0.6511,1.4229 2.3325,2.0486 3.7554,1.3974 1.4229,-0.6511 2.0485,-2.3325 1.3973,-3.7554 -0.2327,-0.5086 -0.6108,-0.937 -1.0867,-1.2311 l -3.1633,-6.1301 c -0.6511,-1.4229 -2.3325,-2.0485 -3.7553,-1.3974 -1.4229,0.6512 -2.0486,2.3325 -1.3974,3.7554 0.2327,0.5087 0.6109,0.937 1.0867,1.2311 z"
       style="fill:none;stroke:#0000ff;stroke-width:0.70866101999999997;stroke-linecap:round;stroke-linejoin:round;stroke-miterlimit:10;stroke-opacity:1;stroke-dasharray:none"
       id="path132"
       inkscape:connector-curvature="0"
       sodipodi:nodetypes="ccccccccc" /><path
       d="m 1861.2374,1535.7919 c -0.5457,1.4666 0.2008,3.0979 1.6674,3.6436 1.4665,0.5457 3.0978,-0.2008 3.6435,-1.6674 0.1951,-0.5242 0.2306,-1.0945 0.1021,-1.6389 l 2.0979,-6.5714 c 0.5457,-1.4666 -0.2008,-3.0979 -1.6674,-3.6436 -1.4666,-0.5457 -3.0978,0.2008 -3.6435,1.6674 -0.1951,0.5242 -0.2306,1.0945 -0.1022,1.6389 z"
       style="fill:none;stroke:#0000ff;stroke-width:0.70866101999999997;stroke-linecap:round;stroke-linejoin:round;stroke-miterlimit:10;stroke-opacity:1;stroke-dasharray:none"
       id="path140"
       inkscape:connector-curvature="0"
       sodipodi:nodetypes="cccccsccc" /><path
       d="m 1801.0925,1502.3308 c 0.9067,-1.2753 0.6078,-3.0442 -0.6676,-3.9509 -1.2753,-0.9067 -3.0442,-0.6078 -3.9509,0.6675 -0.3241,0.4559 -0.506,0.9976 -0.5228,1.5567 l -3.7272,5.8045 c -0.9067,1.2754 -0.6078,3.0443 0.6675,3.951 1.2754,0.9067 3.0443,0.6078 3.951,-0.6676 0.3241,-0.4559 0.506,-0.9975 0.5228,-1.5566 z"
       style="fill:none;stroke:#0000ff;stroke-width:0.70866101999999997;stroke-linecap:round;stroke-linejoin:round;stroke-miterlimit:10;stroke-opacity:1;stroke-dasharray:none"
       id="path142"
       inkscape:connector-curvature="0"
       sodipodi:nodetypes="ccccccscc" /><path
       d="m 1691.6805,1404.2772 c -0.2941,0.4758 -0.7224,0.8539 -1.2311,1.0867 -1.4229,0.6512 -3.1042,0.025 -3.7554,-1.3974 -0.6511,-1.4229 -0.025,-3.1042 1.3974,-3.7553 l 6.1301,-3.1634 c 0.2941,-0.4758 0.7225,-0.8539 1.2311,-1.0866 1.4229,-0.6512 3.1043,-0.026 3.7554,1.3973 0.6512,1.4229 0.025,3.1043 -1.3974,3.7554 z"
       style="fill:none;stroke:#0000ff;stroke-width:0.70866101999999997;stroke-linecap:round;stroke-linejoin:round;stroke-miterlimit:10;stroke-opacity:1;stroke-dasharray:none"
       id="path146"
       inkscape:connector-curvature="0"
       sodipodi:nodetypes="ccccccccc" /><path
       d="m 1667.763,1189.4192 c 1.4666,0.5457 3.0978,-0.2008 3.6436,-1.6673 0.5457,-1.4666 -0.2008,-3.0979 -1.6674,-3.6436 -0.5243,-0.1951 -1.0945,-0.2306 -1.6389,-0.1021 l -6.5715,-2.0978 c -1.4666,-0.5457 -3.0978,0.2008 -3.6435,1.6673 -0.5457,1.4666 0.2008,3.0979 1.6673,3.6436 0.5243,0.195 1.0946,0.2306 1.639,0.1021 z"
       style="fill:none;stroke:#0000ff;stroke-width:0.70866101999999997;stroke-linecap:round;stroke-linejoin:round;stroke-miterlimit:10;stroke-opacity:1;stroke-dasharray:none"
       id="path158"
       inkscape:connector-curvature="0"
       sodipodi:nodetypes="ccccccccc" /><path
       d="m 1796.2069,1018.4816 c 0.6511,1.4229 2.3324,2.0485 3.7553,1.3974 1.4229,-0.6512 2.0486,-2.3325 1.3974,-3.7554 -0.2328,-0.5086 -0.6109,-0.937 -1.0867,-1.2311 l -3.1633,-6.1301 c -0.6511,-1.4229 -2.3325,-2.0485 -3.7554,-1.3974 -1.4229,0.6512 -2.0485,2.3325 -1.3973,3.7554 0.2327,0.5086 0.6108,0.937 1.0866,1.2311 z"
       style="fill:none;stroke:#0000ff;stroke-width:0.70866101999999997;stroke-linecap:round;stroke-linejoin:round;stroke-miterlimit:10;stroke-opacity:1;stroke-dasharray:none"
       id="path166"
       inkscape:connector-curvature="0"
       sodipodi:nodetypes="ccccccccc" /><path
       d="m 2075.5573,1015.6609 c -0.9067,1.2754 -0.6078,3.0443 0.6676,3.9509 1.2753,0.9067 3.0442,0.6079 3.9509,-0.6675 0.3241,-0.4559 0.506,-0.9975 0.5228,-1.5567 l 3.7272,-5.8045 c 0.9067,-1.2754 0.6078,-3.0443 -0.6675,-3.951 -1.2754,-0.9066 -3.0443,-0.6078 -3.951,0.6676 -0.3241,0.4559 -0.506,0.9975 -0.5228,1.5566 z"
       style="fill:none;stroke:#0000ff;stroke-width:0.70866101999999997;stroke-linecap:round;stroke-linejoin:round;stroke-miterlimit:10;stroke-opacity:1;stroke-dasharray:none"
       id="path182"
       inkscape:connector-curvature="0"
       sodipodi:nodetypes="ccscccscc" /><path
       d="m 2207.4267,1183.97 c -1.543,0.2607 -2.5824,1.7229 -2.3217,3.2658 0.2606,1.5429 1.7228,2.5824 3.2657,2.3217 0.5516,-0.093 1.0632,-0.3475 1.4704,-0.731 l 6.74,-1.4689 c 1.5429,-0.2607 2.5824,-1.7229 2.3217,-3.2658 -0.2607,-1.5429 -1.7228,-2.5824 -3.2658,-2.3217 -0.5515,0.093 -1.0631,0.3475 -1.4704,0.731 z"
       style="fill:none;stroke:#0000ff;stroke-width:0.70866101999999997;stroke-linecap:round;stroke-linejoin:round;stroke-miterlimit:10;stroke-opacity:1;stroke-dasharray:none"
       id="path190"
       inkscape:connector-curvature="0"
       sodipodi:nodetypes="cccccsccc" /><path
       d="m 2208.8868,1328.5725 c -1.4666,-0.5457 -3.0979,0.2008 -3.6436,1.6674 -0.5457,1.4665 0.2008,3.0978 1.6674,3.6435 0.5243,0.1951 1.0945,0.2306 1.6389,0.1021 l 6.5715,2.0979 c 1.4665,0.5457 3.0978,-0.2008 3.6435,-1.6674 0.5457,-1.4666 -0.2008,-3.0978 -1.6673,-3.6436 -0.5243,-0.195 -1.0946,-0.2306 -1.639,-0.1021 z"
       style="fill:none;stroke:#0000ff;stroke-width:0.70866101999999997;stroke-linecap:round;stroke-linejoin:round;stroke-miterlimit:10;stroke-opacity:1;stroke-dasharray:none"
       id="path198"
       inkscape:connector-curvature="0"
       sodipodi:nodetypes="cccccsccc" /><path
       d="m 1863.4208,978.41795 c -1.5429,0.26069 -2.5824,1.72282 -2.3217,3.26576 0.093,0.55155 0.3476,1.06318 0.731,1.47041 l 1.469,6.73996 c 0.2607,1.54294 1.7228,2.58241 3.2657,2.32172 1.543,-0.26069 2.5824,-1.72282 2.3218,-3.26576 -0.093,-0.55155 -0.3476,-1.06318 -0.7311,-1.47041 l -1.4689,-6.73996 c -0.2607,-1.54294 -1.7228,-2.58241 -3.2658,-2.32172 z"
       style="fill:none;stroke:#0000ff;stroke-width:0.70866101999999997;stroke-linecap:round;stroke-linejoin:round;stroke-miterlimit:10;stroke-opacity:1;stroke-dasharray:none"
       id="path204"
       inkscape:connector-curvature="0"
       sodipodi:nodetypes="ccccccccc" /><path
       d="m 1938.592,968.59182 c -1.5578,-0.14754 -2.9403,0.99573 -3.0878,2.55357 -0.053,0.55688 0.06,1.11691 0.3255,1.60951 l -0.3255,6.89049 c -0.1476,1.55784 0.9957,2.94031 2.5536,3.08785 1.5578,0.14754 2.9403,-0.99574 3.0878,-2.55357 0.053,-0.55688 -0.061,-1.11691 -0.3255,-1.60952 l 0.3255,-6.89048 c 0.1475,-1.55784 -0.9957,-2.94032 -2.5536,-3.08785 z"
       style="fill:none;stroke:#0000ff;stroke-width:0.70866101999999997;stroke-linecap:round;stroke-linejoin:round;stroke-miterlimit:10;stroke-opacity:1;stroke-dasharray:none"
       id="path208"
       inkscape:connector-curvature="0"
       sodipodi:nodetypes="ccccscccc" /><path
       d="m 1698.9409,1121.0959 c 0.9067,-1.2754 0.6078,-3.0443 -0.6676,-3.9509 -0.4559,-0.3242 -0.9975,-0.5061 -1.5566,-0.5229 l -5.8046,-3.7271 c -1.2753,-0.9067 -3.0442,-0.6079 -3.9509,0.6675 -0.9067,1.2753 -0.6078,3.0442 0.6675,3.9509 0.4559,0.3241 0.9976,0.5061 1.5567,0.5229 l 5.8045,3.7271 c 1.2754,0.9067 3.0443,0.6079 3.951,-0.6675 z"
       style="fill:none;stroke:#0000ff;stroke-width:0.70866101999999997;stroke-linecap:round;stroke-linejoin:round;stroke-miterlimit:10;stroke-opacity:1;stroke-dasharray:none"
       id="path212"
       inkscape:connector-curvature="0"
       sodipodi:nodetypes="scccccccs" /><path
       d="m 2013.745,978.55623 c -1.4665,-0.5457 -3.0978,0.2008 -3.6435,1.66737 -0.1951,0.52426 -0.2306,1.09452 -0.1021,1.63893 l -2.0979,6.57144 c -0.5457,1.46657 0.2008,3.09784 1.6674,3.64355 1.4666,0.54571 3.0978,-0.2008 3.6435,-1.66737 0.1951,-0.52425 0.2306,-1.09452 0.1021,-1.63893 l 2.0979,-6.57144 c 0.5457,-1.46657 -0.2008,-3.09784 -1.6674,-3.64355 z"
       style="fill:none;stroke:#0000ff;stroke-width:0.70866101999999997;stroke-linecap:round;stroke-linejoin:round;stroke-miterlimit:10;stroke-opacity:1;stroke-dasharray:none"
       id="path216"
       inkscape:connector-curvature="0"
       sodipodi:nodetypes="ccccscccc" /><path
       d="m 2189.9557,1114.0252 c -0.6511,-1.4229 -2.3324,-2.0485 -3.7553,-1.3974 -0.5087,0.2328 -0.937,0.6109 -1.2311,1.0867 l -6.1302,3.1633 c -1.4229,0.6512 -2.0485,2.3325 -1.3973,3.7554 0.6511,1.4229 2.3325,2.0485 3.7554,1.3974 0.5086,-0.2328 0.937,-0.6109 1.2311,-1.0867 l 6.1301,-3.1633 c 1.4229,-0.6512 2.0485,-2.3325 1.3973,-3.7554 z"
       style="fill:none;stroke:#0000ff;stroke-width:0.70866101999999997;stroke-linecap:round;stroke-linejoin:round;stroke-miterlimit:10;stroke-opacity:1;stroke-dasharray:none"
       id="path224"
       inkscape:connector-curvature="0"
       sodipodi:nodetypes="ccccccccc" /><path
       d="m 1660.0687,1330.6342 c -1.5429,0.2607 -2.5824,1.7228 -2.3217,3.2657 0.2607,1.543 1.7228,2.5824 3.2657,2.3217 0.5516,-0.093 1.0632,-0.3475 1.4705,-0.731 l 6.7399,-1.4689 c 1.543,-0.2607 2.5824,-1.7228 2.3217,-3.2658 -0.2607,-1.5429 -1.7228,-2.5824 -3.2657,-2.3217 -0.5516,0.093 -1.0632,0.3476 -1.4704,0.731 z"
       style="fill:none;stroke:#0000ff;stroke-width:0.70866101999999997;stroke-linecap:round;stroke-linejoin:round;stroke-miterlimit:10;stroke-opacity:1;stroke-dasharray:none"
       id="path248"
       inkscape:connector-curvature="0"
       sodipodi:nodetypes="ccccccccc" /><path
       d="m 1651.0087,1256.1751 c -1.5578,-0.1475 -2.9403,0.9958 -3.0879,2.5536 -0.1475,1.5579 0.9958,2.9403 2.5536,3.0879 0.5569,0.053 1.1169,-0.061 1.6095,-0.3256 l 6.8905,0.3256 c 1.5579,0.1475 2.9403,-0.9958 3.0879,-2.5536 0.1475,-1.5578 -0.9958,-2.9403 -2.5536,-3.0879 -0.5569,-0.053 -1.1169,0.061 -1.6095,0.3256 z"
       style="fill:none;stroke:#0000ff;stroke-width:0.70866101999999997;stroke-linecap:round;stroke-linejoin:round;stroke-miterlimit:10;stroke-opacity:1;stroke-dasharray:none"
       id="path252"
       inkscape:connector-curvature="0"
       sodipodi:nodetypes="ccccccccc" /><path
       d="m 2177.7089,1396.8958 c -0.9067,1.2754 -0.6078,3.0443 0.6675,3.951 0.4559,0.3241 0.9976,0.506 1.5567,0.5228 l 5.8046,3.7272 c 1.2753,0.9067 3.0442,0.6078 3.9509,-0.6676 0.9067,-1.2753 0.6078,-3.0442 -0.6675,-3.9509 -0.4559,-0.3241 -0.9976,-0.506 -1.5567,-0.5228 l -5.8045,-3.7272 c -1.2754,-0.9067 -3.0443,-0.6078 -3.951,0.6675 z"
       style="fill:none;stroke:#0000ff;stroke-width:0.70866101999999997;stroke-linecap:round;stroke-linejoin:round;stroke-miterlimit:10;stroke-opacity:1;stroke-dasharray:none"
       id="path254"
       inkscape:connector-curvature="0"
       sodipodi:nodetypes="ccccccccc" /><path
       d="m 2225.6411,1261.8166 c 1.5578,0.1475 2.9403,-0.9958 3.0878,-2.5536 0.1476,-1.5578 -0.9957,-2.9403 -2.5535,-3.0879 -0.5569,-0.053 -1.1169,0.061 -1.6095,0.3256 l -6.8905,-0.3256 c -1.5579,-0.1475 -2.9403,0.9958 -3.0879,2.5536 -0.1475,1.5579 0.9958,2.9403 2.5536,3.0879 0.5569,0.053 1.1169,-0.061 1.6095,-0.3256 z"
       style="fill:none;stroke:#0000ff;stroke-width:0.70866101999999997;stroke-linecap:round;stroke-linejoin:round;stroke-miterlimit:10;stroke-opacity:1;stroke-dasharray:none"
       id="path264"
       inkscape:connector-curvature="0"
       sodipodi:nodetypes="ccccccccc" /><path
       d="m 1938.592,1535.2585 c -1.5578,-0.1476 -2.9403,0.9957 -3.0878,2.5536 -0.053,0.5568 0.06,1.1169 0.3255,1.6095 l -0.3255,6.8905 c -0.1476,1.5578 0.9957,2.9403 2.5536,3.0878 1.5578,0.1475 2.9403,-0.9957 3.0878,-2.5536 0.053,-0.5568 -0.061,-1.1169 -0.3255,-1.6095 l 0.3255,-6.8905 c 0.1475,-1.5578 -0.9957,-2.9403 -2.5536,-3.0878 z"
       style="fill:none;stroke:#0000ff;stroke-width:0.70866101999999997;stroke-linecap:round;stroke-linejoin:round;stroke-miterlimit:10;stroke-opacity:1;stroke-dasharray:none"
       id="path280"
       inkscape:connector-curvature="0"
       sodipodi:nodetypes="ccccscccc" /><path
       d="m 1183.7206,996.40766 c -156.4807,0 -283.33336,126.85264 -283.33336,283.33334 0,156.4807 126.85266,283.3333 283.33336,283.3333 156.4807,0 283.3333,-126.8526 283.3333,-283.3333 0,-156.4807 -126.8526,-283.33334 -283.3333,-283.33334 z"
       style="fill:none;stroke:#0000ff;stroke-width:0.70866101999999997;stroke-linecap:round;stroke-linejoin:round;stroke-miterlimit:10;stroke-opacity:1;stroke-dasharray:none"
       id="path284"
       inkscape:connector-curvature="0"
       sodipodi:nodetypes="ssscs" /><path
       d="m 1432.775,1420.6993 c -1.5648,0 -2.8333,1.2686 -2.8333,2.8334 0,1.5648 1.2685,2.8333 2.8333,2.8333 1.5649,0 2.8334,-1.2685 2.8334,-2.8333 0,-1.5648 -1.2685,-2.8334 -2.8334,-2.8334 z"
       style="fill:none;stroke:#0000ff;stroke-width:0.70866101999999997;stroke-linecap:round;stroke-linejoin:round;stroke-miterlimit:10;stroke-opacity:1;stroke-dasharray:none"
       id="path286"
       inkscape:connector-curvature="0"
       sodipodi:nodetypes="ssscs" /><path
       d="m 1461.5047,1351.3397 c -1.5648,0 -2.8333,1.2685 -2.8333,2.8333 0,1.5648 1.2685,2.8334 2.8333,2.8334 1.5649,0 2.8334,-1.2686 2.8334,-2.8334 0,-1.5648 -1.2685,-2.8333 -2.8334,-2.8333 z"
       style="fill:none;stroke:#0000ff;stroke-width:0.70866101999999997;stroke-linecap:round;stroke-linejoin:round;stroke-miterlimit:10;stroke-opacity:1;stroke-dasharray:none"
       id="path288"
       inkscape:connector-curvature="0"
       sodipodi:nodetypes="ssscs" /><path
       d="m 1461.5047,1202.4756 c -1.5648,0 -2.8333,1.2685 -2.8333,2.8334 0,1.5648 1.2685,2.8333 2.8333,2.8333 1.5649,0 2.8334,-1.2685 2.8334,-2.8333 0,-1.5649 -1.2685,-2.8334 -2.8334,-2.8334 z"
       style="fill:none;stroke:#0000ff;stroke-width:0.70866101999999997;stroke-linecap:round;stroke-linejoin:round;stroke-miterlimit:10;stroke-opacity:1;stroke-dasharray:none"
       id="path290"
       inkscape:connector-curvature="0"
       sodipodi:nodetypes="ssscs" /><path
       d="m 1471.3039,1276.9077 c -1.5648,0 -2.8333,1.2685 -2.8333,2.8333 0,1.5648 1.2685,2.8333 2.8333,2.8333 1.5648,0 2.8333,-1.2685 2.8333,-2.8333 0,-1.5648 -1.2685,-2.8333 -2.8333,-2.8333 z"
       style="fill:none;stroke:#0000ff;stroke-width:0.70866101999999997;stroke-linecap:round;stroke-linejoin:round;stroke-miterlimit:10;stroke-opacity:1;stroke-dasharray:none"
       id="path292"
       inkscape:connector-curvature="0"
       sodipodi:nodetypes="ssscs" /><path
       d="m 1258.1526,1554.6918 c -1.5648,0 -2.8333,1.2686 -2.8333,2.8334 0,1.5648 1.2685,2.8333 2.8333,2.8333 1.5648,0 2.8334,-1.2685 2.8334,-2.8333 0,-1.5648 -1.2686,-2.8334 -2.8334,-2.8334 z"
       style="fill:none;stroke:#0000ff;stroke-width:0.70866101999999997;stroke-linecap:round;stroke-linejoin:round;stroke-miterlimit:10;stroke-opacity:1;stroke-dasharray:none"
       id="path294"
       inkscape:connector-curvature="0"
       sodipodi:nodetypes="ssscs" /><path
       d="m 1327.5122,1525.9621 c -1.5648,0 -2.8333,1.2686 -2.8333,2.8334 0,1.5648 1.2685,2.8333 2.8333,2.8333 1.5648,0 2.8334,-1.2685 2.8334,-2.8333 0,-1.5648 -1.2686,-2.8334 -2.8334,-2.8334 z"
       style="fill:none;stroke:#0000ff;stroke-width:0.70866101999999997;stroke-linecap:round;stroke-linejoin:round;stroke-miterlimit:10;stroke-opacity:1;stroke-dasharray:none"
       id="path296"
       inkscape:connector-curvature="0"
       sodipodi:nodetypes="ssscs" /><path
       d="m 1387.0727,1480.2598 c -1.5648,0 -2.8333,1.2685 -2.8333,2.8333 0,1.5648 1.2685,2.8334 2.8333,2.8334 1.5648,0 2.8333,-1.2686 2.8333,-2.8334 0,-1.5648 -1.2685,-2.8333 -2.8333,-2.8333 z"
       style="fill:none;stroke:#0000ff;stroke-width:0.70866101999999997;stroke-linecap:round;stroke-linejoin:round;stroke-miterlimit:10;stroke-opacity:1;stroke-dasharray:none"
       id="path298"
       inkscape:connector-curvature="0"
       sodipodi:nodetypes="ssscs" /><path
       d="m 896.13724,1276.9077 c -1.56481,0 -2.83333,1.2685 -2.83333,2.8333 0,1.5648 1.26852,2.8333 2.83333,2.8333 1.56481,0 2.83333,-1.2685 2.83333,-2.8333 0,-1.5648 -1.26852,-2.8333 -2.83333,-2.8333 z"
       style="fill:none;stroke:#0000ff;stroke-width:0.70866101999999997;stroke-linecap:round;stroke-linejoin:round;stroke-miterlimit:10;stroke-opacity:1;stroke-dasharray:none"
       id="path300"
       inkscape:connector-curvature="0"
       sodipodi:nodetypes="ssscs" /><path
       d="m 905.9364,1351.3397 c -1.5648,0 -2.83333,1.2685 -2.83333,2.8333 0,1.5648 1.26853,2.8334 2.83333,2.8334 1.56481,0 2.83334,-1.2686 2.83334,-2.8334 0,-1.5648 -1.26853,-2.8333 -2.83334,-2.8333 z"
       style="fill:none;stroke:#0000ff;stroke-width:0.70866101999999997;stroke-linecap:round;stroke-linejoin:round;stroke-miterlimit:10;stroke-opacity:1;stroke-dasharray:none"
       id="path302"
       inkscape:connector-curvature="0"
       sodipodi:nodetypes="ssscs" /><path
       d="m 905.9364,1202.4756 c -1.5648,0 -2.83333,1.2685 -2.83333,2.8334 0,1.5648 1.26853,2.8333 2.83333,2.8333 1.56481,0 2.83334,-1.2685 2.83334,-2.8333 0,-1.5649 -1.26853,-2.8334 -2.83334,-2.8334 z"
       style="fill:none;stroke:#0000ff;stroke-width:0.70866101999999997;stroke-linecap:round;stroke-linejoin:round;stroke-miterlimit:10;stroke-opacity:1;stroke-dasharray:none"
       id="path304"
       inkscape:connector-curvature="0"
       sodipodi:nodetypes="ssscs" /><path
       d="m 934.6661,1133.116 c -1.56481,0 -2.83333,1.2685 -2.83333,2.8333 0,1.5648 1.26852,2.8334 2.83333,2.8334 1.56481,0 2.83334,-1.2686 2.83334,-2.8334 0,-1.5648 -1.26853,-2.8333 -2.83334,-2.8333 z"
       style="fill:none;stroke:#0000ff;stroke-width:0.70866101999999997;stroke-linecap:round;stroke-linejoin:round;stroke-miterlimit:10;stroke-opacity:1;stroke-dasharray:none"
       id="path306"
       inkscape:connector-curvature="0"
       sodipodi:nodetypes="ssscs" /><path
       d="m 934.6661,1420.6993 c -1.56481,0 -2.83333,1.2686 -2.83333,2.8334 0,1.5648 1.26852,2.8333 2.83333,2.8333 1.56481,0 2.83334,-1.2685 2.83334,-2.8333 0,-1.5648 -1.26853,-2.8334 -2.83334,-2.8334 z"
       style="fill:none;stroke:#0000ff;stroke-width:0.70866101999999997;stroke-linecap:round;stroke-linejoin:round;stroke-miterlimit:10;stroke-opacity:1;stroke-dasharray:none"
       id="path308"
       inkscape:connector-curvature="0"
       sodipodi:nodetypes="ssscs" /><path
       d="m 980.36845,1480.2598 c -1.56481,0 -2.83333,1.2685 -2.83333,2.8333 0,1.5648 1.26852,2.8334 2.83333,2.8334 1.56481,0 2.83333,-1.2686 2.83333,-2.8334 0,-1.5648 -1.26852,-2.8333 -2.83333,-2.8333 z"
       style="fill:none;stroke:#0000ff;stroke-width:0.70866101999999997;stroke-linecap:round;stroke-linejoin:round;stroke-miterlimit:10;stroke-opacity:1;stroke-dasharray:none"
       id="path310"
       inkscape:connector-curvature="0"
       sodipodi:nodetypes="ssscs" /><path
       d="m 1039.9289,1525.9621 c -1.5648,0 -2.8333,1.2686 -2.8333,2.8334 0,1.5648 1.2685,2.8333 2.8333,2.8333 1.5648,0 2.8333,-1.2685 2.8333,-2.8333 0,-1.5648 -1.2685,-2.8334 -2.8333,-2.8334 z"
       style="fill:none;stroke:#0000ff;stroke-width:0.70866101999999997;stroke-linecap:round;stroke-linejoin:round;stroke-miterlimit:10;stroke-opacity:1;stroke-dasharray:none"
       id="path312"
       inkscape:connector-curvature="0"
       sodipodi:nodetypes="ssscs" /><path
       d="m 1109.2885,1554.6918 c -1.5648,0 -2.8333,1.2686 -2.8333,2.8334 0,1.5648 1.2685,2.8333 2.8333,2.8333 1.5648,0 2.8334,-1.2685 2.8334,-2.8333 0,-1.5648 -1.2686,-2.8334 -2.8334,-2.8334 z"
       style="fill:none;stroke:#0000ff;stroke-width:0.70866101999999997;stroke-linecap:round;stroke-linejoin:round;stroke-miterlimit:10;stroke-opacity:1;stroke-dasharray:none"
       id="path314"
       inkscape:connector-curvature="0"
       sodipodi:nodetypes="ssscs" /><path
       d="m 1183.7206,1564.491 c -1.5648,0 -2.8334,1.2685 -2.8334,2.8333 0,1.5648 1.2686,2.8334 2.8334,2.8334 1.5648,0 2.8333,-1.2686 2.8333,-2.8334 0,-1.5648 -1.2685,-2.8333 -2.8333,-2.8333 z"
       style="fill:none;stroke:#0000ff;stroke-width:0.70866101999999997;stroke-linecap:round;stroke-linejoin:round;stroke-miterlimit:10;stroke-opacity:1;stroke-dasharray:none"
       id="path316"
       inkscape:connector-curvature="0"
       sodipodi:nodetypes="ssscs" /><path
       d="m 1432.775,1133.116 c -1.5648,0 -2.8333,1.2685 -2.8333,2.8333 0,1.5648 1.2685,2.8334 2.8333,2.8334 1.5649,0 2.8334,-1.2686 2.8334,-2.8334 0,-1.5648 -1.2685,-2.8333 -2.8334,-2.8333 z"
       style="fill:none;stroke:#0000ff;stroke-width:0.70866101999999997;stroke-linecap:round;stroke-linejoin:round;stroke-miterlimit:10;stroke-opacity:1;stroke-dasharray:none"
       id="path318"
       inkscape:connector-curvature="0"
       sodipodi:nodetypes="ssscs" /><path
       d="m 1387.0727,1073.5555 c -1.5648,0 -2.8333,1.2686 -2.8333,2.8334 0,1.5648 1.2685,2.8333 2.8333,2.8333 1.5648,0 2.8333,-1.2685 2.8333,-2.8333 0,-1.5648 -1.2685,-2.8334 -2.8333,-2.8334 z"
       style="fill:none;stroke:#0000ff;stroke-width:0.70866101999999997;stroke-linecap:round;stroke-linejoin:round;stroke-miterlimit:10;stroke-opacity:1;stroke-dasharray:none"
       id="path320"
       inkscape:connector-curvature="0"
       sodipodi:nodetypes="ssscs" /><path
       d="m 1327.5122,1027.8532 c -1.5648,0 -2.8333,1.2685 -2.8333,2.8333 0,1.5648 1.2685,2.8334 2.8333,2.8334 1.5648,0 2.8334,-1.2686 2.8334,-2.8334 0,-1.5648 -1.2686,-2.8333 -2.8334,-2.8333 z"
       style="fill:none;stroke:#0000ff;stroke-width:0.70866101999999997;stroke-linecap:round;stroke-linejoin:round;stroke-miterlimit:10;stroke-opacity:1;stroke-dasharray:none"
       id="path322"
       inkscape:connector-curvature="0"
       sodipodi:nodetypes="ssscs" /><path
       d="m 1258.1526,999.1235 c -1.5648,0 -2.8333,1.2685 -2.8333,2.8333 0,1.5648 1.2685,2.8334 2.8333,2.8334 1.5648,0 2.8334,-1.2686 2.8334,-2.8334 0,-1.5648 -1.2686,-2.8333 -2.8334,-2.8333 z"
       style="fill:none;stroke:#0000ff;stroke-width:0.70866101999999997;stroke-linecap:round;stroke-linejoin:round;stroke-miterlimit:10;stroke-opacity:1;stroke-dasharray:none"
       id="path324"
       inkscape:connector-curvature="0"
       sodipodi:nodetypes="ssscs" /><path
       d="m 980.36845,1073.5555 c -1.56481,0 -2.83333,1.2686 -2.83333,2.8334 0,1.5648 1.26852,2.8333 2.83333,2.8333 1.56481,0 2.83333,-1.2685 2.83333,-2.8333 0,-1.5648 -1.26852,-2.8334 -2.83333,-2.8334 z"
       style="fill:none;stroke:#0000ff;stroke-width:0.70866101999999997;stroke-linecap:round;stroke-linejoin:round;stroke-miterlimit:10;stroke-opacity:1;stroke-dasharray:none"
       id="path326"
       inkscape:connector-curvature="0"
       sodipodi:nodetypes="ssscs" /><path
       d="m 1039.9289,1027.8532 c -1.5648,0 -2.8333,1.2685 -2.8333,2.8333 0,1.5648 1.2685,2.8334 2.8333,2.8334 1.5648,0 2.8333,-1.2686 2.8333,-2.8334 0,-1.5648 -1.2685,-2.8333 -2.8333,-2.8333 z"
       style="fill:none;stroke:#0000ff;stroke-width:0.70866101999999997;stroke-linecap:round;stroke-linejoin:round;stroke-miterlimit:10;stroke-opacity:1;stroke-dasharray:none"
       id="path328"
       inkscape:connector-curvature="0"
       sodipodi:nodetypes="ssscs" /><path
       d="m 1183.7206,989.32433 c -1.5648,0 -2.8334,1.26853 -2.8334,2.83333 0,1.56481 1.2686,2.83334 2.8334,2.83334 1.5648,0 2.8333,-1.26853 2.8333,-2.83334 0,-1.5648 -1.2685,-2.83333 -2.8333,-2.83333 z"
       style="fill:none;stroke:#0000ff;stroke-width:0.70866101999999997;stroke-linecap:round;stroke-linejoin:round;stroke-miterlimit:10;stroke-opacity:1;stroke-dasharray:none"
       id="path330"
       inkscape:connector-curvature="0"
       sodipodi:nodetypes="ssscs" /><path
       d="m 1109.2885,999.1235 c -1.5648,0 -2.8333,1.2685 -2.8333,2.8333 0,1.5648 1.2685,2.8334 2.8333,2.8334 1.5648,0 2.8334,-1.2686 2.8334,-2.8334 0,-1.5648 -1.2686,-2.8333 -2.8334,-2.8333 z"
       style="fill:none;stroke:#0000ff;stroke-width:0.70866101999999997;stroke-linecap:round;stroke-linejoin:round;stroke-miterlimit:10;stroke-opacity:1;stroke-dasharray:none"
       id="path332"
       inkscape:connector-curvature="0"
       sodipodi:nodetypes="ssscs" /><path
       d="m 929.11027,1109.6158 -45.72303,110.3852 0,119.48 45.72303,110.3852 84.48513,84.4851 110.3852,45.723 119.48,0 110.3851,-45.723 84.4852,-84.4851 45.723,-110.3852 0,-119.48 -45.723,-110.3852 -84.4852,-84.4851 -110.3851,-45.72304 -119.48,0 -110.3852,45.72304 z"
       style="fill:none;stroke:#ff0000;stroke-width:0.70866101999999997;stroke-linecap:round;stroke-linejoin:round;stroke-miterlimit:10;stroke-opacity:1;stroke-dasharray:none"
       id="path362"
       inkscape:connector-curvature="0"
       sodipodi:nodetypes="ccccccccccccccccc" /><path
       d="m 314.80483,1474.9016 -16.02776,16.0278 c -1.10648,1.1065 -2.90045,1.1065 -4.00693,0 L 238.673,1434.8323 c -1.10649,-1.1065 -1.10649,-2.9005 0,-4.007 l 16.02775,-16.0277 c 1.10649,-1.1065 2.90045,-1.1065 4.00694,0 l 56.09714,56.0971 c 1.10648,1.1065 1.10648,2.9004 0,4.0069 z"
       style="fill:none;stroke:#0000ff;stroke-width:0.70866101999999997;stroke-linecap:round;stroke-linejoin:round;stroke-miterlimit:10;stroke-opacity:1;stroke-dasharray:none"
       id="path370"
       inkscape:connector-curvature="0"
       sodipodi:nodetypes="ccccccccc" /><path
       d="m 611.31827,1490.9294 c 1.10649,1.1065 2.90046,1.1065 4.00694,0 l 56.09714,-56.0971 c 1.10648,-1.1065 1.10648,-2.9005 0,-4.007 l -16.02776,-16.0277 c -1.10648,-1.1065 -2.90045,-1.1065 -4.00693,0 l -56.09714,56.0971 c -1.10649,1.1065 -1.10649,2.9004 0,4.0069 z"
       style="fill:none;stroke:#0000ff;stroke-width:0.70866101999999997;stroke-linecap:round;stroke-linejoin:round;stroke-miterlimit:10;stroke-opacity:1;stroke-dasharray:none"
       id="path408"
       inkscape:connector-curvature="0"
       sodipodi:nodetypes="ccccccccc" /><path
       d="M 671.42235,1114.2772 615.32521,1058.18 c -1.10648,-1.1064 -2.90045,-1.1064 -4.00694,0 l -16.02775,16.0278 c -1.10649,1.1065 -1.10649,2.9004 0,4.0069 l 56.09714,56.0972 c 1.10648,1.1065 2.90045,1.1065 4.00693,0 l 16.02776,-16.0278 c 1.10648,-1.1065 1.10648,-2.9004 0,-4.0069 z"
       style="fill:none;stroke:#0000ff;stroke-width:0.70866101999999997;stroke-linecap:round;stroke-linejoin:round;stroke-miterlimit:10;stroke-opacity:1;stroke-dasharray:none"
       id="path422"
       inkscape:connector-curvature="0"
       sodipodi:nodetypes="ccccccccc" /><path
       d="m 298.77707,1178.3882 -16.02775,-16.0278 c -1.10648,-1.1064 -1.10648,-2.9004 0,-4.0069 l 56.09714,-56.0971 c 1.10648,-1.1065 2.90045,-1.1065 4.00694,0 l 16.02775,16.0277 c 1.10649,1.1065 1.10649,2.9005 0,4.007 l -56.09714,56.0971 c -1.10648,1.1065 -2.90045,1.1065 -4.00694,0 z"
       style="fill:none;stroke:#0000ff;stroke-width:0.70866101999999997;stroke-linecap:round;stroke-linejoin:round;stroke-miterlimit:10;stroke-opacity:1;stroke-dasharray:none"
       id="path440"
       inkscape:connector-curvature="0"
       sodipodi:nodetypes="ccccccccc" /><path
       d="m 298.77707,1058.18 16.02776,16.0278 c 1.10648,1.1065 1.10648,2.9004 0,4.0069 l -56.09714,56.0972 c -1.10649,1.1065 -2.90045,1.1065 -4.00694,0 L 238.673,1118.2841 c -1.10649,-1.1065 -1.10649,-2.9004 0,-4.0069 l 56.09714,-56.0972 c 1.10648,-1.1064 2.90045,-1.1064 4.00693,0 z"
       style="fill:none;stroke:#0000ff;stroke-width:0.70866101999999997;stroke-linecap:round;stroke-linejoin:round;stroke-miterlimit:10;stroke-opacity:1;stroke-dasharray:none"
       id="path444"
       inkscape:connector-curvature="0"
       sodipodi:nodetypes="ccccccccc" /><path
       d="m 302.78401,1370.7212 c -1.10648,-1.1064 -2.90045,-1.1064 -4.00694,0 l -16.02775,16.0278 c -1.10648,1.1065 -1.10648,2.9004 0,4.0069 l 56.09714,56.0972 c 1.10648,1.1065 2.90045,1.1065 4.00694,0 l 16.02775,-16.0278 c 1.10649,-1.1065 1.10649,-2.9004 0,-4.0069 z"
       style="fill:none;stroke:#0000ff;stroke-width:0.70866101999999997;stroke-linecap:round;stroke-linejoin:round;stroke-miterlimit:10;stroke-opacity:1;stroke-dasharray:none"
       id="path458"
       inkscape:connector-curvature="0"
       sodipodi:nodetypes="ccccccccc" /><path
       d="m 607.31133,1178.3882 c 1.10649,1.1065 2.90046,1.1065 4.00694,0 l 16.02776,-16.0278 c 1.10648,-1.1064 1.10648,-2.9004 0,-4.0069 l -56.09714,-56.0971 c -1.10649,-1.1065 -2.90046,-1.1065 -4.00694,0 l -16.02775,16.0277 c -1.10649,1.1065 -1.10649,2.9005 0,4.007 z"
       style="fill:none;stroke:#0000ff;stroke-width:0.70866101999999997;stroke-linecap:round;stroke-linejoin:round;stroke-miterlimit:10;stroke-opacity:1;stroke-dasharray:none"
       id="path474"
       inkscape:connector-curvature="0"
       sodipodi:nodetypes="ccccccccc" /><path
       d="m 284.92251,1529.165 110.38515,45.723 119.48003,0 110.38515,-45.723 84.48514,-84.4851 45.72303,-110.3852 0,-119.48 -45.72303,-110.3852 -84.48514,-84.4851 -110.38515,-45.72302 -119.48003,0 -110.38515,45.72302 -84.48514,84.4851 -45.72303,110.3852 0,119.48 45.72303,110.3852 z"
       style="fill:none;stroke:#ff0000;stroke-width:0.70866101999999997;stroke-linecap:round;stroke-linejoin:round;stroke-miterlimit:10;stroke-opacity:1;stroke-dasharray:none"
       id="path494"
       inkscape:connector-curvature="0"
       sodipodi:nodetypes="ccccccccccccccccc" /><path
       d="m 387.04767,1512.5547 136,0 0,-195.5 -136,0 z"
       style="fill:none;stroke:#00ff00;stroke-width:0.70866101999999997;stroke-linecap:round;stroke-linejoin:round;stroke-miterlimit:10;stroke-opacity:1;stroke-dasharray:none"
       id="path524"
       inkscape:connector-curvature="0"
       sodipodi:nodetypes="ccccc" /><path
       d="m 455.04767,1042.2214 c 18.77768,0 34,15.2223 34,34 0,18.7777 -15.22232,34 -34,34 -18.77768,0 -34,-15.2223 -34,-34 0,-18.7777 15.22232,-34 34,-34 z"
       style="fill:none;stroke:#00ff00;stroke-width:0.70866101999999997;stroke-linecap:round;stroke-linejoin:round;stroke-miterlimit:10;stroke-opacity:1;stroke-dasharray:none"
       id="path530"
       inkscape:connector-curvature="0"
       sodipodi:nodetypes="ssscs" /><path
       d="m 455.04767,1550.8047 c -1.5648,0 -2.83333,1.2685 -2.83333,2.8333 0,1.5649 1.26853,2.8334 2.83333,2.8334 1.56481,0 2.83334,-1.2685 2.83334,-2.8334 0,-1.5648 -1.26853,-2.8333 -2.83334,-2.8333 z"
       style="fill:none;stroke:#0000ff;stroke-width:0.70866101999999997;stroke-linecap:round;stroke-linejoin:round;stroke-miterlimit:10;stroke-opacity:1;stroke-dasharray:none"
       id="path532"
       inkscape:connector-curvature="0"
       sodipodi:nodetypes="ssscs" /><path
       d="m 704.10215,1415.513 c -1.56481,0 -2.83334,1.2686 -2.83334,2.8334 0,1.5648 1.26853,2.8333 2.83334,2.8333 1.5648,0 2.83333,-1.2685 2.83333,-2.8333 0,-1.5648 -1.26853,-2.8334 -2.83333,-2.8334 z"
       style="fill:none;stroke:#0000ff;stroke-width:0.70866101999999997;stroke-linecap:round;stroke-linejoin:round;stroke-miterlimit:10;stroke-opacity:1;stroke-dasharray:none"
       id="path534"
       inkscape:connector-curvature="0"
       sodipodi:nodetypes="ssscs" /><path
       d="m 724.62147,1343.9535 c -1.5648,0 -2.83333,1.2685 -2.83333,2.8333 0,1.5648 1.26853,2.8333 2.83333,2.8333 1.56481,0 2.83334,-1.2685 2.83334,-2.8333 0,-1.5648 -1.26853,-2.8333 -2.83334,-2.8333 z"
       style="fill:none;stroke:#0000ff;stroke-width:0.70866101999999997;stroke-linecap:round;stroke-linejoin:round;stroke-miterlimit:10;stroke-opacity:1;stroke-dasharray:none"
       id="path536"
       inkscape:connector-curvature="0"
       sodipodi:nodetypes="ssscs" /><path
       d="m 732.83184,1346.1534 c -1.5648,0 -2.83333,1.2686 -2.83333,2.8334 0,1.5648 1.26853,2.8333 2.83333,2.8333 1.56481,0 2.83334,-1.2685 2.83334,-2.8333 0,-1.5648 -1.26853,-2.8334 -2.83334,-2.8334 z"
       style="fill:none;stroke:#0000ff;stroke-width:0.70866101999999997;stroke-linecap:round;stroke-linejoin:round;stroke-miterlimit:10;stroke-opacity:1;stroke-dasharray:none"
       id="path538"
       inkscape:connector-curvature="0"
       sodipodi:nodetypes="ssscs" /><path
       d="m 734.13101,1271.7214 c -1.56481,0 -2.83334,1.2685 -2.83334,2.8333 0,1.5648 1.26853,2.8333 2.83334,2.8333 1.5648,0 2.83333,-1.2685 2.83333,-2.8333 0,-1.5648 -1.26853,-2.8333 -2.83333,-2.8333 z"
       style="fill:none;stroke:#0000ff;stroke-width:0.70866101999999997;stroke-linecap:round;stroke-linejoin:round;stroke-miterlimit:10;stroke-opacity:1;stroke-dasharray:none"
       id="path540"
       inkscape:connector-curvature="0"
       sodipodi:nodetypes="ssscs" /><path
       d="m 696.74093,1132.1797 c -1.56481,0 -2.83333,1.2685 -2.83333,2.8333 0,1.5649 1.26852,2.8334 2.83333,2.8334 1.56481,0 2.83333,-1.2685 2.83333,-2.8334 0,-1.5648 -1.26852,-2.8333 -2.83333,-2.8333 z"
       style="fill:none;stroke:#0000ff;stroke-width:0.70866101999999997;stroke-linecap:round;stroke-linejoin:round;stroke-miterlimit:10;stroke-opacity:1;stroke-dasharray:none"
       id="path542"
       inkscape:connector-curvature="0"
       sodipodi:nodetypes="ssscs" /><path
       d="m 732.83184,1197.2893 c -1.5648,0 -2.83333,1.2686 -2.83333,2.8334 0,1.5648 1.26853,2.8333 2.83333,2.8333 1.56481,0 2.83334,-1.2685 2.83334,-2.8333 0,-1.5648 -1.26853,-2.8334 -2.83334,-2.8334 z"
       style="fill:none;stroke:#0000ff;stroke-width:0.70866101999999997;stroke-linecap:round;stroke-linejoin:round;stroke-miterlimit:10;stroke-opacity:1;stroke-dasharray:none"
       id="path544"
       inkscape:connector-curvature="0"
       sodipodi:nodetypes="ssscs" /><path
       d="m 724.62147,1199.4893 c -1.5648,0 -2.83333,1.2685 -2.83333,2.8333 0,1.5648 1.26853,2.8334 2.83333,2.8334 1.56481,0 2.83334,-1.2686 2.83334,-2.8334 0,-1.5648 -1.26853,-2.8333 -2.83334,-2.8333 z"
       style="fill:none;stroke:#0000ff;stroke-width:0.70866101999999997;stroke-linecap:round;stroke-linejoin:round;stroke-miterlimit:10;stroke-opacity:1;stroke-dasharray:none"
       id="path546"
       inkscape:connector-curvature="0"
       sodipodi:nodetypes="ssscs" /><path
       d="m 742.63101,1271.7214 c -1.56481,0 -2.83334,1.2685 -2.83334,2.8333 0,1.5648 1.26853,2.8333 2.83334,2.8333 1.5648,0 2.83333,-1.2685 2.83333,-2.8333 0,-1.5648 -1.26853,-2.8333 -2.83333,-2.8333 z"
       style="fill:none;stroke:#0000ff;stroke-width:0.70866101999999997;stroke-linecap:round;stroke-linejoin:round;stroke-miterlimit:10;stroke-opacity:1;stroke-dasharray:none"
       id="path548"
       inkscape:connector-curvature="0"
       sodipodi:nodetypes="ssscs" /><path
       d="m 594.58934,1513.4146 c -1.56481,0 -2.83333,1.2686 -2.83333,2.8334 0,1.5648 1.26852,2.8333 2.83333,2.8333 1.56481,0 2.83333,-1.2685 2.83333,-2.8333 0,-1.5648 -1.26852,-2.8334 -2.83333,-2.8334 z"
       style="fill:none;stroke:#0000ff;stroke-width:0.70866101999999997;stroke-linecap:round;stroke-linejoin:round;stroke-miterlimit:10;stroke-opacity:1;stroke-dasharray:none"
       id="path550"
       inkscape:connector-curvature="0"
       sodipodi:nodetypes="ssscs" /><path
       d="m 529.47972,1549.5055 c -1.56481,0 -2.83334,1.2686 -2.83334,2.8334 0,1.5648 1.26853,2.8333 2.83334,2.8333 1.5648,0 2.83333,-1.2685 2.83333,-2.8333 0,-1.5648 -1.26853,-2.8334 -2.83333,-2.8334 z"
       style="fill:none;stroke:#0000ff;stroke-width:0.70866101999999997;stroke-linecap:round;stroke-linejoin:round;stroke-miterlimit:10;stroke-opacity:1;stroke-dasharray:none"
       id="path552"
       inkscape:connector-curvature="0"
       sodipodi:nodetypes="ssscs" /><path
       d="m 527.27976,1541.2952 c -1.56481,0 -2.83334,1.2685 -2.83334,2.8333 0,1.5648 1.26853,2.8333 2.83334,2.8333 1.5648,0 2.83333,-1.2685 2.83333,-2.8333 0,-1.5648 -1.26853,-2.8333 -2.83333,-2.8333 z"
       style="fill:none;stroke:#0000ff;stroke-width:0.70866101999999997;stroke-linecap:round;stroke-linejoin:round;stroke-miterlimit:10;stroke-opacity:1;stroke-dasharray:none"
       id="path554"
       inkscape:connector-curvature="0"
       sodipodi:nodetypes="ssscs" /><path
       d="m 598.83934,1520.7759 c -1.56481,0 -2.83333,1.2685 -2.83333,2.8333 0,1.5648 1.26852,2.8333 2.83333,2.8333 1.56481,0 2.83333,-1.2685 2.83333,-2.8333 0,-1.5648 -1.26852,-2.8333 -2.83333,-2.8333 z"
       style="fill:none;stroke:#0000ff;stroke-width:0.70866101999999997;stroke-linecap:round;stroke-linejoin:round;stroke-miterlimit:10;stroke-opacity:1;stroke-dasharray:none"
       id="path556"
       inkscape:connector-curvature="0"
       sodipodi:nodetypes="ssscs" /><path
       d="m 652.38939,1469.0631 c -1.56481,0 -2.83333,1.2685 -2.83333,2.8333 0,1.5648 1.26852,2.8334 2.83333,2.8334 1.56481,0 2.83333,-1.2686 2.83333,-2.8334 0,-1.5648 -1.26852,-2.8333 -2.83333,-2.8333 z"
       style="fill:none;stroke:#0000ff;stroke-width:0.70866101999999997;stroke-linecap:round;stroke-linejoin:round;stroke-miterlimit:10;stroke-opacity:1;stroke-dasharray:none"
       id="path558"
       inkscape:connector-curvature="0"
       sodipodi:nodetypes="ssscs" /><path
       d="m 658.3998,1475.0735 c -1.56481,0 -2.83333,1.2685 -2.83333,2.8333 0,1.5648 1.26852,2.8334 2.83333,2.8334 1.56481,0 2.83333,-1.2686 2.83333,-2.8334 0,-1.5648 -1.26852,-2.8333 -2.83333,-2.8333 z"
       style="fill:none;stroke:#0000ff;stroke-width:0.70866101999999997;stroke-linecap:round;stroke-linejoin:round;stroke-miterlimit:10;stroke-opacity:1;stroke-dasharray:none"
       id="path560"
       inkscape:connector-curvature="0"
       sodipodi:nodetypes="ssscs" /><path
       d="m 696.74093,1411.263 c -1.56481,0 -2.83333,1.2686 -2.83333,2.8334 0,1.5648 1.26852,2.8333 2.83333,2.8333 1.56481,0 2.83333,-1.2685 2.83333,-2.8333 0,-1.5648 -1.26852,-2.8334 -2.83333,-2.8334 z"
       style="fill:none;stroke:#0000ff;stroke-width:0.70866101999999997;stroke-linecap:round;stroke-linejoin:round;stroke-miterlimit:10;stroke-opacity:1;stroke-dasharray:none"
       id="path562"
       inkscape:connector-curvature="0"
       sodipodi:nodetypes="ssscs" /><path
       d="m 167.46434,1271.7214 c -1.56481,0 -2.83333,1.2685 -2.83333,2.8333 0,1.5648 1.26852,2.8333 2.83333,2.8333 1.56481,0 2.83333,-1.2685 2.83333,-2.8333 0,-1.5648 -1.26852,-2.8333 -2.83333,-2.8333 z"
       style="fill:none;stroke:#0000ff;stroke-width:0.70866101999999997;stroke-linecap:round;stroke-linejoin:round;stroke-miterlimit:10;stroke-opacity:1;stroke-dasharray:none"
       id="path564"
       inkscape:connector-curvature="0"
       sodipodi:nodetypes="ssscs" /><path
       d="m 185.47387,1343.9535 c -1.5648,0 -2.83333,1.2685 -2.83333,2.8333 0,1.5648 1.26853,2.8333 2.83333,2.8333 1.56481,0 2.83334,-1.2685 2.83334,-2.8333 0,-1.5648 -1.26853,-2.8333 -2.83334,-2.8333 z"
       style="fill:none;stroke:#0000ff;stroke-width:0.70866101999999997;stroke-linecap:round;stroke-linejoin:round;stroke-miterlimit:10;stroke-opacity:1;stroke-dasharray:none"
       id="path566"
       inkscape:connector-curvature="0"
       sodipodi:nodetypes="ssscs" /><path
       d="m 177.2635,1346.1534 c -1.5648,0 -2.83333,1.2686 -2.83333,2.8334 0,1.5648 1.26853,2.8333 2.83333,2.8333 1.56481,0 2.83334,-1.2685 2.83334,-2.8333 0,-1.5648 -1.26853,-2.8334 -2.83334,-2.8334 z"
       style="fill:none;stroke:#0000ff;stroke-width:0.70866101999999997;stroke-linecap:round;stroke-linejoin:round;stroke-miterlimit:10;stroke-opacity:1;stroke-dasharray:none"
       id="path568"
       inkscape:connector-curvature="0"
       sodipodi:nodetypes="ssscs" /><path
       d="m 213.35442,1411.263 c -1.56481,0 -2.83334,1.2686 -2.83334,2.8334 0,1.5648 1.26853,2.8333 2.83334,2.8333 1.5648,0 2.83333,-1.2685 2.83333,-2.8333 0,-1.5648 -1.26853,-2.8334 -2.83333,-2.8334 z"
       style="fill:none;stroke:#0000ff;stroke-width:0.70866101999999997;stroke-linecap:round;stroke-linejoin:round;stroke-miterlimit:10;stroke-opacity:1;stroke-dasharray:none"
       id="path570"
       inkscape:connector-curvature="0"
       sodipodi:nodetypes="ssscs" /><path
       d="m 175.96434,1271.7214 c -1.56481,0 -2.83333,1.2685 -2.83333,2.8333 0,1.5648 1.26852,2.8333 2.83333,2.8333 1.56481,0 2.83333,-1.2685 2.83333,-2.8333 0,-1.5648 -1.26852,-2.8333 -2.83333,-2.8333 z"
       style="fill:none;stroke:#0000ff;stroke-width:0.70866101999999997;stroke-linecap:round;stroke-linejoin:round;stroke-miterlimit:10;stroke-opacity:1;stroke-dasharray:none"
       id="path572"
       inkscape:connector-curvature="0"
       sodipodi:nodetypes="ssscs" /><path
       d="m 177.2635,1197.2893 c -1.5648,0 -2.83333,1.2686 -2.83333,2.8334 0,1.5648 1.26853,2.8333 2.83333,2.8333 1.56481,0 2.83334,-1.2685 2.83334,-2.8333 0,-1.5648 -1.26853,-2.8334 -2.83334,-2.8334 z"
       style="fill:none;stroke:#0000ff;stroke-width:0.70866101999999997;stroke-linecap:round;stroke-linejoin:round;stroke-miterlimit:10;stroke-opacity:1;stroke-dasharray:none"
       id="path574"
       inkscape:connector-curvature="0"
       sodipodi:nodetypes="ssscs" /><path
       d="m 185.47387,1199.4893 c -1.5648,0 -2.83333,1.2685 -2.83333,2.8333 0,1.5648 1.26853,2.8334 2.83333,2.8334 1.56481,0 2.83334,-1.2686 2.83334,-2.8334 0,-1.5648 -1.26853,-2.8333 -2.83334,-2.8333 z"
       style="fill:none;stroke:#0000ff;stroke-width:0.70866101999999997;stroke-linecap:round;stroke-linejoin:round;stroke-miterlimit:10;stroke-opacity:1;stroke-dasharray:none"
       id="path576"
       inkscape:connector-curvature="0"
       sodipodi:nodetypes="ssscs" /><path
       d="m 205.9932,1127.9297 c -1.5648,0 -2.83333,1.2685 -2.83333,2.8333 0,1.5649 1.26853,2.8334 2.83333,2.8334 1.56481,0 2.83333,-1.2685 2.83333,-2.8334 0,-1.5648 -1.26852,-2.8333 -2.83333,-2.8333 z"
       style="fill:none;stroke:#0000ff;stroke-width:0.70866101999999997;stroke-linecap:round;stroke-linejoin:round;stroke-miterlimit:10;stroke-opacity:1;stroke-dasharray:none"
       id="path578"
       inkscape:connector-curvature="0"
       sodipodi:nodetypes="ssscs" /><path
       d="m 205.9932,1415.513 c -1.5648,0 -2.83333,1.2686 -2.83333,2.8334 0,1.5648 1.26853,2.8333 2.83333,2.8333 1.56481,0 2.83333,-1.2685 2.83333,-2.8333 0,-1.5648 -1.26852,-2.8334 -2.83333,-2.8334 z"
       style="fill:none;stroke:#0000ff;stroke-width:0.70866101999999997;stroke-linecap:round;stroke-linejoin:round;stroke-miterlimit:10;stroke-opacity:1;stroke-dasharray:none"
       id="path580"
       inkscape:connector-curvature="0"
       sodipodi:nodetypes="ssscs" /><path
       d="m 257.70596,1469.0631 c -1.56481,0 -2.83334,1.2685 -2.83334,2.8333 0,1.5648 1.26853,2.8334 2.83334,2.8334 1.5648,0 2.83333,-1.2686 2.83333,-2.8334 0,-1.5648 -1.26853,-2.8333 -2.83333,-2.8333 z"
       style="fill:none;stroke:#0000ff;stroke-width:0.70866101999999997;stroke-linecap:round;stroke-linejoin:round;stroke-miterlimit:10;stroke-opacity:1;stroke-dasharray:none"
       id="path582"
       inkscape:connector-curvature="0"
       sodipodi:nodetypes="ssscs" /><path
       d="m 251.69555,1475.0735 c -1.56481,0 -2.83333,1.2685 -2.83333,2.8333 0,1.5648 1.26852,2.8334 2.83333,2.8334 1.5648,0 2.83333,-1.2686 2.83333,-2.8334 0,-1.5648 -1.26853,-2.8333 -2.83333,-2.8333 z"
       style="fill:none;stroke:#0000ff;stroke-width:0.70866101999999997;stroke-linecap:round;stroke-linejoin:round;stroke-miterlimit:10;stroke-opacity:1;stroke-dasharray:none"
       id="path584"
       inkscape:connector-curvature="0"
       sodipodi:nodetypes="ssscs" /><path
       d="m 315.50601,1513.4146 c -1.56481,0 -2.83334,1.2686 -2.83334,2.8334 0,1.5648 1.26853,2.8333 2.83334,2.8333 1.5648,0 2.83333,-1.2685 2.83333,-2.8333 0,-1.5648 -1.26853,-2.8334 -2.83333,-2.8334 z"
       style="fill:none;stroke:#0000ff;stroke-width:0.70866101999999997;stroke-linecap:round;stroke-linejoin:round;stroke-miterlimit:10;stroke-opacity:1;stroke-dasharray:none"
       id="path586"
       inkscape:connector-curvature="0"
       sodipodi:nodetypes="ssscs" /><path
       d="m 311.25601,1520.7759 c -1.56481,0 -2.83334,1.2685 -2.83334,2.8333 0,1.5648 1.26853,2.8333 2.83334,2.8333 1.5648,0 2.83333,-1.2685 2.83333,-2.8333 0,-1.5648 -1.26853,-2.8333 -2.83333,-2.8333 z"
       style="fill:none;stroke:#0000ff;stroke-width:0.70866101999999997;stroke-linecap:round;stroke-linejoin:round;stroke-miterlimit:10;stroke-opacity:1;stroke-dasharray:none"
       id="path588"
       inkscape:connector-curvature="0"
       sodipodi:nodetypes="ssscs" /><path
       d="m 382.81559,1541.2952 c -1.56481,0 -2.83333,1.2685 -2.83333,2.8333 0,1.5648 1.26852,2.8333 2.83333,2.8333 1.56481,0 2.83334,-1.2685 2.83334,-2.8333 0,-1.5648 -1.26853,-2.8333 -2.83334,-2.8333 z"
       style="fill:none;stroke:#0000ff;stroke-width:0.70866101999999997;stroke-linecap:round;stroke-linejoin:round;stroke-miterlimit:10;stroke-opacity:1;stroke-dasharray:none"
       id="path590"
       inkscape:connector-curvature="0"
       sodipodi:nodetypes="ssscs" /><path
       d="m 380.61563,1549.5055 c -1.56481,0 -2.83333,1.2686 -2.83333,2.8334 0,1.5648 1.26852,2.8333 2.83333,2.8333 1.56481,0 2.83333,-1.2685 2.83333,-2.8333 0,-1.5648 -1.26852,-2.8334 -2.83333,-2.8334 z"
       style="fill:none;stroke:#0000ff;stroke-width:0.70866101999999997;stroke-linecap:round;stroke-linejoin:round;stroke-miterlimit:10;stroke-opacity:1;stroke-dasharray:none"
       id="path592"
       inkscape:connector-curvature="0"
       sodipodi:nodetypes="ssscs" /><path
       d="m 455.04767,1559.3047 c -1.5648,0 -2.83333,1.2685 -2.83333,2.8333 0,1.5649 1.26853,2.8334 2.83333,2.8334 1.56481,0 2.83334,-1.2685 2.83334,-2.8334 0,-1.5648 -1.26853,-2.8333 -2.83334,-2.8333 z"
       style="fill:none;stroke:#0000ff;stroke-width:0.70866101999999997;stroke-linecap:round;stroke-linejoin:round;stroke-miterlimit:10;stroke-opacity:1;stroke-dasharray:none"
       id="path594"
       inkscape:connector-curvature="0"
       sodipodi:nodetypes="ssscs" /><path
       d="m 704.10215,1127.9297 c -1.56481,0 -2.83334,1.2685 -2.83334,2.8333 0,1.5649 1.26853,2.8334 2.83334,2.8334 1.5648,0 2.83333,-1.2685 2.83333,-2.8334 0,-1.5648 -1.26853,-2.8333 -2.83333,-2.8333 z"
       style="fill:none;stroke:#0000ff;stroke-width:0.70866101999999997;stroke-linecap:round;stroke-linejoin:round;stroke-miterlimit:10;stroke-opacity:1;stroke-dasharray:none"
       id="path596"
       inkscape:connector-curvature="0"
       sodipodi:nodetypes="ssscs" /><path
       d="m 652.38939,1074.3797 c -1.56481,0 -2.83333,1.2685 -2.83333,2.8333 0,1.5648 1.26852,2.8333 2.83333,2.8333 1.56481,0 2.83333,-1.2685 2.83333,-2.8333 0,-1.5648 -1.26852,-2.8333 -2.83333,-2.8333 z"
       style="fill:none;stroke:#0000ff;stroke-width:0.70866101999999997;stroke-linecap:round;stroke-linejoin:round;stroke-miterlimit:10;stroke-opacity:1;stroke-dasharray:none"
       id="path598"
       inkscape:connector-curvature="0"
       sodipodi:nodetypes="ssscs" /><path
       d="m 658.3998,1068.3693 c -1.56481,0 -2.83333,1.2685 -2.83333,2.8333 0,1.5648 1.26852,2.8333 2.83333,2.8333 1.56481,0 2.83333,-1.2685 2.83333,-2.8333 0,-1.5648 -1.26852,-2.8333 -2.83333,-2.8333 z"
       style="fill:none;stroke:#0000ff;stroke-width:0.70866101999999997;stroke-linecap:round;stroke-linejoin:round;stroke-miterlimit:10;stroke-opacity:1;stroke-dasharray:none"
       id="path600"
       inkscape:connector-curvature="0"
       sodipodi:nodetypes="ssscs" /><path
       d="m 594.58934,1030.0281 c -1.56481,0 -2.83333,1.2686 -2.83333,2.8334 0,1.5648 1.26852,2.8333 2.83333,2.8333 1.56481,0 2.83333,-1.2685 2.83333,-2.8333 0,-1.5648 -1.26852,-2.8334 -2.83333,-2.8334 z"
       style="fill:none;stroke:#0000ff;stroke-width:0.70866101999999997;stroke-linecap:round;stroke-linejoin:round;stroke-miterlimit:10;stroke-opacity:1;stroke-dasharray:none"
       id="path602"
       inkscape:connector-curvature="0"
       sodipodi:nodetypes="ssscs" /><path
       d="m 598.83934,1022.6669 c -1.56481,0 -2.83333,1.2685 -2.83333,2.8333 0,1.5648 1.26852,2.8334 2.83333,2.8334 1.56481,0 2.83333,-1.2686 2.83333,-2.8334 0,-1.5648 -1.26852,-2.8333 -2.83333,-2.8333 z"
       style="fill:none;stroke:#0000ff;stroke-width:0.70866101999999997;stroke-linecap:round;stroke-linejoin:round;stroke-miterlimit:10;stroke-opacity:1;stroke-dasharray:none"
       id="path604"
       inkscape:connector-curvature="0"
       sodipodi:nodetypes="ssscs" /><path
       d="m 527.27976,1002.1476 c -1.56481,0 -2.83334,1.2685 -2.83334,2.8333 0,1.5648 1.26853,2.8333 2.83334,2.8333 1.5648,0 2.83333,-1.2685 2.83333,-2.8333 0,-1.5648 -1.26853,-2.8333 -2.83333,-2.8333 z"
       style="fill:none;stroke:#0000ff;stroke-width:0.70866101999999997;stroke-linecap:round;stroke-linejoin:round;stroke-miterlimit:10;stroke-opacity:1;stroke-dasharray:none"
       id="path606"
       inkscape:connector-curvature="0"
       sodipodi:nodetypes="ssscs" /><path
       d="m 529.47972,993.93721 c -1.56481,0 -2.83334,1.26853 -2.83334,2.83333 0,1.56481 1.26853,2.83334 2.83334,2.83334 1.5648,0 2.83333,-1.26853 2.83333,-2.83334 0,-1.5648 -1.26853,-2.83333 -2.83333,-2.83333 z"
       style="fill:none;stroke:#0000ff;stroke-width:0.70866101999999997;stroke-linecap:round;stroke-linejoin:round;stroke-miterlimit:10;stroke-opacity:1;stroke-dasharray:none"
       id="path608"
       inkscape:connector-curvature="0"
       sodipodi:nodetypes="ssscs" /><path
       d="m 455.04767,992.63805 c -1.5648,0 -2.83333,1.26852 -2.83333,2.83333 0,1.56481 1.26853,2.83333 2.83333,2.83333 1.56481,0 2.83334,-1.26852 2.83334,-2.83333 0,-1.56481 -1.26853,-2.83333 -2.83334,-2.83333 z"
       style="fill:none;stroke:#0000ff;stroke-width:0.70866101999999997;stroke-linecap:round;stroke-linejoin:round;stroke-miterlimit:10;stroke-opacity:1;stroke-dasharray:none"
       id="path610"
       inkscape:connector-curvature="0"
       sodipodi:nodetypes="ssscs" /><path
       d="m 213.35442,1132.1797 c -1.56481,0 -2.83334,1.2685 -2.83334,2.8333 0,1.5649 1.26853,2.8334 2.83334,2.8334 1.5648,0 2.83333,-1.2685 2.83333,-2.8334 0,-1.5648 -1.26853,-2.8333 -2.83333,-2.8333 z"
       style="fill:none;stroke:#0000ff;stroke-width:0.70866101999999997;stroke-linecap:round;stroke-linejoin:round;stroke-miterlimit:10;stroke-opacity:1;stroke-dasharray:none"
       id="path612"
       inkscape:connector-curvature="0"
       sodipodi:nodetypes="ssscs" /><path
       d="m 251.69555,1068.3693 c -1.56481,0 -2.83333,1.2685 -2.83333,2.8333 0,1.5648 1.26852,2.8333 2.83333,2.8333 1.5648,0 2.83333,-1.2685 2.83333,-2.8333 0,-1.5648 -1.26853,-2.8333 -2.83333,-2.8333 z"
       style="fill:none;stroke:#0000ff;stroke-width:0.70866101999999997;stroke-linecap:round;stroke-linejoin:round;stroke-miterlimit:10;stroke-opacity:1;stroke-dasharray:none"
       id="path614"
       inkscape:connector-curvature="0"
       sodipodi:nodetypes="ssscs" /><path
       d="m 257.70596,1074.3797 c -1.56481,0 -2.83334,1.2685 -2.83334,2.8333 0,1.5648 1.26853,2.8333 2.83334,2.8333 1.5648,0 2.83333,-1.2685 2.83333,-2.8333 0,-1.5648 -1.26853,-2.8333 -2.83333,-2.8333 z"
       style="fill:none;stroke:#0000ff;stroke-width:0.70866101999999997;stroke-linecap:round;stroke-linejoin:round;stroke-miterlimit:10;stroke-opacity:1;stroke-dasharray:none"
       id="path616"
       inkscape:connector-curvature="0"
       sodipodi:nodetypes="ssscs" /><path
       d="m 311.25601,1022.6669 c -1.56481,0 -2.83334,1.2685 -2.83334,2.8333 0,1.5648 1.26853,2.8334 2.83334,2.8334 1.5648,0 2.83333,-1.2686 2.83333,-2.8334 0,-1.5648 -1.26853,-2.8333 -2.83333,-2.8333 z"
       style="fill:none;stroke:#0000ff;stroke-width:0.70866101999999997;stroke-linecap:round;stroke-linejoin:round;stroke-miterlimit:10;stroke-opacity:1;stroke-dasharray:none"
       id="path618"
       inkscape:connector-curvature="0"
       sodipodi:nodetypes="ssscs" /><path
       d="m 455.04767,984.13805 c -1.5648,0 -2.83333,1.26852 -2.83333,2.83333 0,1.56481 1.26853,2.83333 2.83333,2.83333 1.56481,0 2.83334,-1.26852 2.83334,-2.83333 0,-1.56481 -1.26853,-2.83333 -2.83334,-2.83333 z"
       style="fill:none;stroke:#0000ff;stroke-width:0.70866101999999997;stroke-linecap:round;stroke-linejoin:round;stroke-miterlimit:10;stroke-opacity:1;stroke-dasharray:none"
       id="path620"
       inkscape:connector-curvature="0"
       sodipodi:nodetypes="ssscs" /><path
       d="m 382.81559,1002.1476 c -1.56481,0 -2.83333,1.2685 -2.83333,2.8333 0,1.5648 1.26852,2.8333 2.83333,2.8333 1.56481,0 2.83334,-1.2685 2.83334,-2.8333 0,-1.5648 -1.26853,-2.8333 -2.83334,-2.8333 z"
       style="fill:none;stroke:#0000ff;stroke-width:0.70866101999999997;stroke-linecap:round;stroke-linejoin:round;stroke-miterlimit:10;stroke-opacity:1;stroke-dasharray:none"
       id="path622"
       inkscape:connector-curvature="0"
       sodipodi:nodetypes="ssscs" /><path
       d="m 380.61563,993.93721 c -1.56481,0 -2.83333,1.26853 -2.83333,2.83333 0,1.56481 1.26852,2.83334 2.83333,2.83334 1.56481,0 2.83333,-1.26853 2.83333,-2.83334 0,-1.5648 -1.26852,-2.83333 -2.83333,-2.83333 z"
       style="fill:none;stroke:#0000ff;stroke-width:0.70866101999999997;stroke-linecap:round;stroke-linejoin:round;stroke-miterlimit:10;stroke-opacity:1;stroke-dasharray:none"
       id="path624"
       inkscape:connector-curvature="0"
       sodipodi:nodetypes="ssscs" /><path
       d="m 315.50601,1030.0281 c -1.56481,0 -2.83334,1.2686 -2.83334,2.8334 0,1.5648 1.26853,2.8333 2.83334,2.8333 1.5648,0 2.83333,-1.2685 2.83333,-2.8333 0,-1.5648 -1.26853,-2.8334 -2.83333,-2.8334 z"
       style="fill:none;stroke:#0000ff;stroke-width:0.70866101999999997;stroke-linecap:round;stroke-linejoin:round;stroke-miterlimit:10;stroke-opacity:1;stroke-dasharray:none"
       id="path626"
       inkscape:connector-curvature="0"
       sodipodi:nodetypes="ssscs" /><path
       d="m 627.34603,1386.749 -16.02776,-16.0278 c -1.10648,-1.1064 -2.90045,-1.1064 -4.00694,0 l -56.09713,56.0972 c -1.10649,1.1065 -1.10649,2.9004 0,4.0069 l 16.02775,16.0278 c 1.10648,1.1065 2.90045,1.1065 4.00694,0 l 56.09714,-56.0972 c 1.10648,-1.1065 1.10648,-2.9004 0,-4.0069 z"
       style="fill:none;stroke:#0000ff;stroke-width:0.70866101999999997;stroke-linecap:round;stroke-linejoin:round;stroke-miterlimit:10;stroke-opacity:1;stroke-dasharray:none"
       id="path630"
       inkscape:connector-curvature="0"
       sodipodi:nodetypes="ccccccccc" /><path
       d="m 455.04767,1317.0547 0,42.5 68,0 0,-42.5 z"
       style="fill:none;stroke:#0000ff;stroke-width:0.70866101999999997;stroke-linecap:round;stroke-linejoin:round;stroke-miterlimit:10;stroke-opacity:1;stroke-dasharray:none"
       id="path634"
       inkscape:connector-curvature="0"
       sodipodi:nodetypes="ccc" /><path
       d="m 372.06713,901.98688 16.97049,0 3.68923,-0.73785 3.68924,-2.21354 2.95139,-2.95139 1.47569,-4.42708 0,-20.65972 -1.47569,-4.42709 -2.21355,-2.95138 -2.95138,-2.21355 -3.68924,-1.47569 -18.44618,0 0,63.45486"
       style="fill:none;stroke:#000000;stroke-width:0.85039401;stroke-linecap:round;stroke-linejoin:round;stroke-miterlimit:10;stroke-opacity:1;stroke-dasharray:none"
       id="path636"
       inkscape:connector-curvature="0" /><path
       d="m 450.4265,881.32716 -18.44618,0 -4.42708,-1.4757 -2.95139,-2.21354 -1.47569,-2.21354 -1.4757,-3.68924 0,-2.95138 1.4757,-2.95139 1.47569,-2.21354 2.21354,-2.21355 2.95139,-1.47569 20.65972,0 0,30.25174 -0.73784,3.68923 -1.4757,2.95139 -2.21354,2.21354 -2.95139,2.21354 -4.42708,0.73785 -13.28125,0"
       style="fill:none;stroke:#000000;stroke-width:0.85039401;stroke-linecap:round;stroke-linejoin:round;stroke-miterlimit:10;stroke-opacity:1;stroke-dasharray:none"
       id="path638"
       inkscape:connector-curvature="0" /><path
       d="m 471.2338,863.61883 3.68923,-1.4757 4.42709,-1.47569 5.16493,-0.73785 5.90277,0 4.42709,0.73785 2.95139,2.21354 2.21354,3.68923 0,2.95139 -1.4757,3.68924 -2.21354,2.95139 -2.95139,1.47569 -18.44618,8.85417 -2.21354,2.21354 -1.47569,2.95139 0,2.21354 0.73784,2.95139 2.21354,2.95139 2.95139,2.21354 4.42709,0 5.90277,-0.73785 5.90278,-1.47569 3.68924,-1.4757"
       style="fill:none;stroke:#000000;stroke-width:0.85039401;stroke-linecap:round;stroke-linejoin:round;stroke-miterlimit:10;stroke-opacity:1;stroke-dasharray:none"
       id="path640"
       inkscape:connector-curvature="0" /><path
       d="m 520.81713,881.32716 28.77604,0 0,8.85417 -1.47569,3.68923 -2.21354,3.68924 -3.68924,2.95139 -3.68924,1.47569 -3.68923,0.73785 -5.16493,-1.4757 -3.68924,-2.21354 -2.95139,-3.68924 -2.21354,-5.90277 0,-19.92188 1.47569,-4.42708 2.21355,-2.95139 2.95138,-1.47569 4.42709,-0.73785 17.70833,0"
       style="fill:none;stroke:#000000;stroke-width:0.85039401;stroke-linecap:round;stroke-linejoin:round;stroke-miterlimit:10;stroke-opacity:1;stroke-dasharray:none"
       id="path642"
       inkscape:connector-curvature="0" /><path
       d="m 1004.7033,863.52832 3.6892,-1.4757 4.4271,-1.47569 5.1649,-0.73785 5.9028,0 4.4271,0.73785 2.9514,2.21354 2.2135,3.68924 0,2.95139 -1.4757,3.68923 -2.2135,2.95139 -2.9514,1.4757 -18.4462,8.85416 -2.2135,2.21354 -1.4757,2.95139 0,2.21354 0.7378,2.95139 2.2136,2.95139 2.9513,2.21354 4.4271,0 5.9028,-0.73784 5.9028,-1.4757 3.6892,-1.47569"
       style="fill:none;stroke:#000000;stroke-width:0.85039401;stroke-linecap:round;stroke-linejoin:round;stroke-miterlimit:10;stroke-opacity:1;stroke-dasharray:none"
       id="path644"
       inkscape:connector-curvature="0" /><path
       d="m 1054.2866,901.89637 0,-30.25173 0.7379,-3.68924 2.2135,-3.68923 2.9514,-2.95139 3.6892,-1.4757 19.184,0 0,42.05729"
       style="fill:none;stroke:#000000;stroke-width:0.85039401;stroke-linecap:round;stroke-linejoin:round;stroke-miterlimit:10;stroke-opacity:1;stroke-dasharray:none"
       id="path646"
       inkscape:connector-curvature="0" /><path
       d="m 1103.8699,859.83908 0,42.05729 21.3976,0 0,-6.64062"
       style="fill:none;stroke:#000000;stroke-width:0.85039401;stroke-linecap:round;stroke-linejoin:round;stroke-miterlimit:10;stroke-opacity:1;stroke-dasharray:none"
       id="path648"
       inkscape:connector-curvature="0" /><path
       d="m 1146.3699,859.83908 0,42.05729 21.3976,0 0,-6.64062"
       style="fill:none;stroke:#000000;stroke-width:0.85039401;stroke-linecap:round;stroke-linejoin:round;stroke-miterlimit:10;stroke-opacity:1;stroke-dasharray:none"
       id="path650"
       inkscape:connector-curvature="0" /><path
       d="m 1203.6269,859.83908 4.4271,0.73785 3.6892,1.47569 2.9514,2.95139 1.4757,2.95139 1.4757,3.68924 0,16.97048 -0.7379,3.68924 -2.2135,3.68924 -2.2136,2.95138 -2.2135,1.4757 -3.6892,1.47569 -3.6893,0.73785 -3.6892,-0.73785 -3.6892,-2.21354 -2.9514,-2.21354 -1.4757,-2.21354 -2.2136,-5.16493 0,-16.97049 1.4757,-4.42708 2.2136,-3.68924 2.9514,-2.95139 2.9514,-1.47569 5.1649,-0.73785"
       style="fill:none;stroke:#000000;stroke-width:0.85039401;stroke-linecap:round;stroke-linejoin:round;stroke-miterlimit:10;stroke-opacity:1;stroke-dasharray:none"
       id="path652"
       inkscape:connector-curvature="0" /><path
       d="m 1238.4533,901.89637 0,-30.25173 0.7378,-3.68924 2.2136,-3.68923 2.9513,-2.95139 3.6893,-1.4757 19.184,0 0,42.05729"
       style="fill:none;stroke:#000000;stroke-width:0.85039401;stroke-linecap:round;stroke-linejoin:round;stroke-miterlimit:10;stroke-opacity:1;stroke-dasharray:none"
       id="path654"
       inkscape:connector-curvature="0" /><path
       d="m 1288.0366,859.83908 0,42.79514 16.9705,0 3.6892,-1.47569 2.9514,-1.4757 2.9514,-2.95139 1.4757,-2.95139 0.7378,-3.68923 0,-30.25174"
       style="fill:none;stroke:#000000;stroke-width:0.85039401;stroke-linecap:round;stroke-linejoin:round;stroke-miterlimit:10;stroke-opacity:1;stroke-dasharray:none"
       id="path656"
       inkscape:connector-curvature="0" /><path
       d="m 1366.396,901.89637 -16.9705,0 -3.6892,-0.73784 -3.6893,-2.21355 -2.2135,-2.21354 -2.2136,-5.16493 0,-20.65972 1.4757,-4.42708 2.9514,-3.68924 3.6893,-2.21354 3.6892,-0.73785 16.9705,0 0,63.45486"
       style="fill:none;stroke:#000000;stroke-width:0.85039401;stroke-linecap:round;stroke-linejoin:round;stroke-miterlimit:10;stroke-opacity:1;stroke-dasharray:none"
       id="path658"
       inkscape:connector-curvature="0" /><path
       d="m 1846.983,849.37601 0,49.43576 0.7378,4.42709 2.2135,4.42708 3.6893,2.95139 2.9514,1.47569 4.4271,0.73785"
       style="fill:none;stroke:#000000;stroke-width:0.85039401;stroke-linecap:round;stroke-linejoin:round;stroke-miterlimit:10;stroke-opacity:1;stroke-dasharray:none"
       id="path660"
       inkscape:connector-curvature="0" /><path
       d="m 1839.6045,891.4333 21.3976,0"
       style="fill:none;stroke:#000000;stroke-width:0.85039401;stroke-linecap:round;stroke-linejoin:round;stroke-miterlimit:10;stroke-opacity:1;stroke-dasharray:none"
       id="path662"
       inkscape:connector-curvature="0" /><path
       d="m 1896.8614,849.37601 4.4271,0.73785 3.6893,1.47569 2.9513,2.95139 1.4757,2.95139 1.4757,3.68923 0,16.97049 -0.7378,3.68924 -2.2136,3.68923 -2.2135,2.95139 -2.2135,1.47569 -3.6893,1.4757 -3.6892,0.73785 -3.6893,-0.73785 -3.6892,-2.21354 -2.9514,-2.21354 -1.4757,-2.21354 -2.2135,-5.16494 0,-16.97048 1.4757,-4.42708 2.2135,-3.68924 2.9514,-2.95139 2.9514,-1.47569 5.1649,-0.73785"
       style="fill:none;stroke:#000000;stroke-width:0.85039401;stroke-linecap:round;stroke-linejoin:round;stroke-miterlimit:10;stroke-opacity:1;stroke-dasharray:none"
       id="path664"
       inkscape:connector-curvature="0" /><path
       d="m 1960.4639,870.77358 -18.4462,0 -4.4271,-1.4757 -2.9514,-2.21354 -1.4757,-2.21354 -1.4757,-3.68924 0,-2.95138 1.4757,-2.95139 1.4757,-2.21355 2.2136,-2.21354 2.9513,-1.47569 20.6598,0 0,30.25173 -0.7379,3.68924 -1.4757,2.95139 -2.2135,2.21354 -2.9514,2.21354 -4.4271,0.73785 -13.2812,0"
       style="fill:none;stroke:#000000;stroke-width:0.85039401;stroke-linecap:round;stroke-linejoin:round;stroke-miterlimit:10;stroke-opacity:1;stroke-dasharray:none"
       id="path666"
       inkscape:connector-curvature="0" /><path
       d="m 1981.2712,849.37601 0,42.79514 30.2517,0 5.1649,-1.4757 3.6893,-2.21354 2.2135,-2.95139 1.4757,-3.68923 0,-32.46528"
       style="fill:none;stroke:#000000;stroke-width:0.85039401;stroke-linecap:round;stroke-linejoin:round;stroke-miterlimit:10;stroke-opacity:1;stroke-dasharray:none"
       id="path668"
       inkscape:connector-curvature="0" /><path
       d="m 2002.6687,849.37601 0,42.79514"
       style="fill:none;stroke:#000000;stroke-width:0.85039401;stroke-linecap:round;stroke-linejoin:round;stroke-miterlimit:10;stroke-opacity:1;stroke-dasharray:none"
       id="path670"
       inkscape:connector-curvature="0" /></g></svg>